<svg id="Group_1041" data-name="Group 1041" xmlns="http://www.w3.org/2000/svg" xmlns:xlink="http://www.w3.org/1999/xlink" width="42" height="41" viewBox="0 0 42 41">
  <defs>
    <clipPath id="clip-path">
      <rect id="Rectangle_719" data-name="Rectangle 719" width="42" height="41" fill="none"/>
    </clipPath>
    <clipPath id="clip-path-2">
      <rect id="Rectangle_718" data-name="Rectangle 718" width="41.918" height="23.102" fill="#11163f"/>
    </clipPath>
  </defs>
  <g id="Group_1035" data-name="Group 1035" clip-path="url(#clip-path)">
    <g id="Group_1034" data-name="Group 1034" transform="translate(0.082 9.079)">
      <g id="Group_1033" data-name="Group 1033" clip-path="url(#clip-path-2)">
        <g id="Group_1032" data-name="Group 1032">
          <g id="Group_1031" data-name="Group 1031" clip-path="url(#clip-path-2)">
            <path id="Path_1687" data-name="Path 1687" d="M1,125.642a3.45,3.45,0,0,1,2.912-2.627c.546-.109,1.083-.265,1.626-.391a2.032,2.032,0,0,0,1.353-1.009c.99-1.7,2-3.392,2.977-5.1a5.981,5.981,0,0,1,4.425-3.082,4.839,4.839,0,0,1,.773-.045c3.693,0,7.387-.014,11.08,0a5.655,5.655,0,0,1,5.024,2.778c.99,1.576,1.945,3.178,2.816,4.82a2.975,2.975,0,0,0,2.555,1.687,8.056,8.056,0,0,1,3.437.923,5.6,5.6,0,0,1,2.93,4.905c.018.758.007,1.518,0,2.277a3.22,3.22,0,0,1-3.181,3.119c-.709,0-1.418.009-2.126,0a.534.534,0,0,0-.522.29,4.656,4.656,0,0,1-8.019.016.568.568,0,0,0-.553-.306q-6.562.009-13.125,0a.6.6,0,0,0-.58.333,4.655,4.655,0,0,1-7.975,0,.618.618,0,0,0-.621-.334c-.626.017-1.254.006-1.881,0a3.256,3.256,0,0,1-3.206-2.209c-.037-.1-.082-.2-.123-.3v-5.754m38.368-.746a1.808,1.808,0,0,0-.631-.361,10.487,10.487,0,0,0-2.63-.539,3.738,3.738,0,0,1-3.014-1.79c-.973-1.68-1.972-3.345-2.935-5.031a4.612,4.612,0,0,0-4.242-2.448q-5.274-.034-10.549,0a4.63,4.63,0,0,0-4.272,2.468c-.959,1.688-1.965,3.349-2.933,5.032a3.542,3.542,0,0,1-2.4,1.767c-.65.146-1.3.312-1.941.476a1.272,1.272,0,0,0-.728.391.33.33,0,0,0,.069.027c.341,0,.681,0,1.022.008.572.01.872.328.751.878-.186.845-.414,1.681-.644,2.516a.654.654,0,0,1-.7.5c-.313,0-.627.007-.94,0-.23-.006-.315.094-.311.312.009.506-.02,1.013.011,1.518a1.874,1.874,0,0,0,1.8,1.919,8.529,8.529,0,0,0,1.142.033c.908,0,.9,0,.918-.874a4.514,4.514,0,0,1,4.879-4.286,4.452,4.452,0,0,1,4.331,4.66c-.038.419.124.51.528.508,3.925-.014,7.851-.007,11.776-.009.851,0,.73.071.733-.732a4.466,4.466,0,0,1,3.054-4.174,4.7,4.7,0,0,1,5.106,1.358,4.211,4.211,0,0,1,1.052,3.065c-.027.394.116.518.506.49.407-.029.817,0,1.226-.008a1.977,1.977,0,0,0,2.144-2.1c.006-.293,0-.586,0-.879-.008-.925.1-.785-.793-.8a3.219,3.219,0,0,1-3.132-3.165.651.651,0,0,1,.725-.723c.313-.007.626,0,1.022,0m-25.32,7.034a3.221,3.221,0,0,0-3.225-3.127,3.173,3.173,0,0,0-3.234,3.154,3.23,3.23,0,0,0,6.459-.027m19.033-3.137a3.177,3.177,0,0,0-3.232,3.157,3.106,3.106,0,0,0,3.181,3.145,3.152,3.152,0,0,0,3.262-3.158,3.229,3.229,0,0,0-3.211-3.144m6.956-2.564c-.177,0-.355.008-.531,0-.3-.017-.378.065-.2.333a2.083,2.083,0,0,0,1.814.892c.218.009.2-.11.168-.258-.191-.783-.425-.965-1.25-.965m-37.7.587a.57.57,0,0,0,0,.12c.042.193-.132.476.258.52.355.04.534-.092.581-.435a4.6,4.6,0,0,1,.131-.543c.032-.12.014-.2-.126-.243-.558-.169-.845.025-.845.582" transform="translate(-0.998 -113.382)" fill="#11163f"/>
            <path id="Path_1688" data-name="Path 1688" d="M101.976,145.059q-2.349,0-4.7,0c-.77,0-1.073-.519-.676-1.17q1.506-2.468,3.03-4.926a3.28,3.28,0,0,1,3.02-1.635c1.375.02,2.751,0,4.127.005.617,0,.832.212.833.819q0,3.054,0,6.108c0,.581-.221.8-.812.8q-2.411,0-4.822,0m.33-1.334c1.185,0,2.371-.006,3.556,0,.274,0,.39-.076.388-.362q-.016-2.177,0-4.353c0-.256-.088-.355-.356-.352-1.076.01-2.153-.01-3.229.01a2.089,2.089,0,0,0-1.879,1.071c-.718,1.208-1.468,2.4-2.2,3.6-.229.373-.224.383.208.384q1.758,0,3.515,0" transform="translate(-88.605 -135.409)" fill="#11163f"/>
            <path id="Path_1689" data-name="Path 1689" d="M253.718,145.106q-2.351,0-4.7,0c-.645,0-.85-.2-.851-.842q0-3.036,0-6.071c0-.6.216-.812.839-.813q2.146,0,4.293,0a3.178,3.178,0,0,1,2.65,1.339,6.9,6.9,0,0,1,.576.918.648.648,0,0,1-.248.9.714.714,0,0,1-.942-.2,4.563,4.563,0,0,1-.345-.542,2.036,2.036,0,0,0-1.875-1.074c-1.076-.02-2.153,0-3.23-.01-.266,0-.358.094-.357.351q.012,2.177,0,4.354c0,.286.113.363.388.362q3.557-.01,7.113,0c.362,0,.355-.109.192-.358q-.352-.538-.673-1.1a.7.7,0,0,1,.183-1.018.737.737,0,0,1,1.036.333c.483.772.963,1.547,1.428,2.329.374.628.06,1.137-.692,1.138q-2.392,0-4.783,0" transform="translate(-227.906 -135.457)" fill="#11163f"/>
            <path id="Path_1690" data-name="Path 1690" d="M97.81,242.458c-.218,0-.436.009-.654,0a.662.662,0,0,1,.011-1.324c.449-.013.9-.014,1.348,0a.629.629,0,0,1,.655.666.638.638,0,0,1-.666.658c-.231.011-.463,0-.694,0" transform="translate(-88.674 -230.893)" fill="#11163f"/>
            <path id="Path_1691" data-name="Path 1691" d="M249.565,241.17c.218,0,.436-.009.654,0a.662.662,0,0,1-.014,1.324c-.449.013-.9.014-1.348,0a.629.629,0,0,1-.653-.668.637.637,0,0,1,.667-.656c.231-.011.463,0,.694,0" transform="translate(-227.942 -230.934)" fill="#11163f"/>
            <path id="Path_1692" data-name="Path 1692" d="M100.459,323.017a1.992,1.992,0,1,1-1.94-1.981,1.925,1.925,0,0,1,1.94,1.981m-1.98-.627a.641.641,0,0,0-.614.58.6.6,0,1,0,.614-.58" transform="translate(-88.652 -304.408)" fill="#11163f"/>
            <path id="Path_1693" data-name="Path 1693" d="M369.942,321.036a1.946,1.946,0,1,1-2,1.93,1.911,1.911,0,0,1,2-1.93m-.608,1.916a.6.6,0,1,0,.632-.562.646.646,0,0,0-.632.562" transform="translate(-337.871 -304.408)" fill="#11163f"/>
          </g>
        </g>
      </g>
    </g>
  </g>
</svg>
