<svg id="Group_1043" data-name="Group 1043" xmlns="http://www.w3.org/2000/svg" xmlns:xlink="http://www.w3.org/1999/xlink" width="42" height="39" viewBox="0 0 42 39">
  <defs>
    <clipPath id="clip-path">
      <rect id="Rectangle_716" data-name="Rectangle 716" width="42" height="39" fill="#11163f"/>
    </clipPath>
  </defs>
  <g id="Group_1029" data-name="Group 1029" clip-path="url(#clip-path)">
    <path id="Path_1673" data-name="Path 1673" d="M80.547,33.959,75.524,22.927a2.284,2.284,0,0,1,1.012-3.255c.459-.279,1.1-.467,1.319-.876a3.7,3.7,0,0,0,.079-1.621q0-4.511,0-9.023c0-.915.412-1.334,1.323-1.339,1.174-.006,2.348-.019,3.521.008.388.009.508-.08.5-.483-.024-1.655-.011-3.31-.009-4.965C83.273.415,83.689,0,84.666,0q4.663,0,9.326,0c.983,0,1.373.394,1.375,1.381,0,1.671.009,3.342-.007,5.013,0,.326.08.43.419.424,1.157-.021,2.316-.012,3.473-.007.923,0,1.344.416,1.335,1.326-.022,2.079,0,4.158-.023,6.237-.014,1.368.006,2.74.017,4.11a.513.513,0,0,0,.3.515c.4.222.787.468,1.177.709a2.283,2.283,0,0,1,.967,3.166q-2.476,5.43-4.957,10.858c-.033.071-.062.145-.093.216a15.13,15.13,0,0,1-1.19-1.155q2.447-5.334,4.89-10.67c.22-.483.09-.8-.407-1.105q-5.728-3.485-11.457-6.966a.971.971,0,0,0-1.108.005q-5.724,3.488-11.454,6.965a.79.79,0,0,0-.365,1.191c.314.7.636,1.4.957,2.1q1.946,4.243,3.894,8.484a13.409,13.409,0,0,1-1.19,1.155M89.339,1.528c-1.38,0-2.76.008-4.14-.006-.3,0-.41.054-.406.382q.028,2.246,0,4.493c0,.326.08.425.419.424q4.116-.02,8.232,0c.306,0,.4-.072.4-.39q-.026-2.27,0-4.54c0-.287-.065-.372-.364-.368-1.38.017-2.76.008-4.14.008m-5.36,6.811c-1.379,0-2.759.01-4.138-.008-.313,0-.393.083-.389.39q.024,2.245,0,4.491c0,.327.079.423.417.42,1.617-.018,3.237-.062,4.851.01a4.42,4.42,0,0,0,3.228-.9.791.791,0,0,1,.292-.154c.226-.061.269-.2.267-.416-.01-1.15-.016-2.3,0-3.451.005-.309-.079-.393-.391-.389-1.379.017-2.759.007-4.138.007m10.587,0H90.38c-.189,0-.367-.046-.363.267.017,1.213.007,2.427.007,3.64a.268.268,0,0,0,.156.295c.556.3,1.1.626,1.637.951a.911.911,0,0,0,.492.135c2.14,0,4.281-.007,6.421,0,.278,0,.342-.088.34-.349-.011-1.529-.014-3.057,0-4.586,0-.3-.079-.366-.369-.363-1.379.016-2.759.007-4.138.007M79.459,17.894l4.373-2.659c-1.405-.085-2.777-.083-4.149-.087-.155,0-.228.039-.226.209.006.813,0,1.626,0,2.537m19.606-.006c0-.885,0-1.67,0-2.455,0-.135.039-.287-.194-.286-1.383.005-2.765,0-4.148,0l-.023.087Z" transform="translate(-68.037 0)" fill="#11163f"/>
    <path id="Path_1674" data-name="Path 1674" d="M28.756,338.608a15.126,15.126,0,0,0,1.19,1.155,2.471,2.471,0,0,0,3.45-.367,4.125,4.125,0,0,1,2.758-1.505,3.893,3.893,0,0,1,3.445,1.333,2.894,2.894,0,0,0,2.084,1.072.756.756,0,1,1-.118,1.5,4.027,4.027,0,0,1-3.014-1.484,2.509,2.509,0,0,0-1.949-.926,2.458,2.458,0,0,0-1.933.856,4.034,4.034,0,0,1-6.39.021,2.517,2.517,0,0,0-3.843,0,4.122,4.122,0,0,1-3.18,1.541A3.98,3.98,0,0,1,18.1,340.32a2.5,2.5,0,0,0-2.087-.931,2.446,2.446,0,0,0-1.792.846,4.039,4.039,0,0,1-6.424,0,2.53,2.53,0,0,0-3.816.01A4.2,4.2,0,0,1,.9,341.8c-.53.017-.866-.257-.89-.7a.772.772,0,0,1,.815-.8,2.721,2.721,0,0,0,1.941-.959A4.033,4.033,0,0,1,9,339.321a2.5,2.5,0,0,0,3.515.451,13.285,13.285,0,0,0,1.19-1.156c.083-.042.17-.079.249-.127a4.04,4.04,0,0,1,5.248.791,2.54,2.54,0,0,0,4.092-.02,4.03,4.03,0,0,1,2.72-1.38,4.433,4.433,0,0,1,2.742.729" transform="translate(-0.005 -305.813)" fill="#11163f"/>
    <path id="Path_1675" data-name="Path 1675" d="M5.7,377.714a4.315,4.315,0,0,1,3.277,1.447,2.533,2.533,0,0,0,4.035.01,4.032,4.032,0,0,1,6.268.072,2.534,2.534,0,0,0,3.88.026,4.029,4.029,0,0,1,6.359-.013,2.528,2.528,0,0,0,3.879,0,4.034,4.034,0,0,1,6.363.013,2.566,2.566,0,0,0,1.784.877,1.411,1.411,0,0,1,.327.049.709.709,0,0,1,.562.816.7.7,0,0,1-.746.65,4.034,4.034,0,0,1-3.154-1.5,2.5,2.5,0,0,0-1.905-.916,2.465,2.465,0,0,0-1.976.865,4.031,4.031,0,0,1-6.391,0,2.544,2.544,0,0,0-3.881.052,4.04,4.04,0,0,1-4.678,1.207,4.3,4.3,0,0,1-1.594-1.163,2.526,2.526,0,0,0-4,.01,4.043,4.043,0,0,1-6.242-.024,2.525,2.525,0,0,0-3.94-.038,4.141,4.141,0,0,1-3.057,1.5A.758.758,0,0,1,0,380.981a.764.764,0,0,1,.786-.825,2.829,2.829,0,0,0,2.047-1.046,3.824,3.824,0,0,1,2.866-1.4" transform="translate(0 -341.89)" fill="#11163f"/>
    <path id="Path_1676" data-name="Path 1676" d="M170.2,176.414a.839.839,0,0,1-.429.675c-.766.467-1.527.944-2.3,1.4a.749.749,0,0,1-1.072-.249.757.757,0,0,1,.3-1.055c.759-.478,1.522-.952,2.3-1.4a.775.775,0,0,1,1.209.636" transform="translate(-150.423 -158.997)" fill="#11163f"/>
    <path id="Path_1677" data-name="Path 1677" d="M243.374,175.624a.943.943,0,0,1,.463.186c.7.427,1.4.847,2.1,1.276.5.305.635.743.374,1.146s-.674.457-1.162.164c-.743-.445-1.484-.894-2.219-1.353a.72.72,0,0,1-.366-.882.747.747,0,0,1,.81-.537" transform="translate(-219.386 -158.97)" fill="#11163f"/>
    <path id="Path_1678" data-name="Path 1678" d="M182.536,28.41c0-.252-.014-.5,0-.756a.732.732,0,0,1,.766-.733.717.717,0,0,1,.745.7c.024.534.025,1.072,0,1.606a.741.741,0,0,1-.76.7.757.757,0,0,1-.746-.716c-.021-.266,0-.535,0-.8" transform="translate(-165.117 -24.368)" fill="#11163f"/>
    <path id="Path_1679" data-name="Path 1679" d="M215.907,28.393c0,.268.015.537,0,.8a.758.758,0,0,1-.773.738.749.749,0,0,1-.737-.724A14.615,14.615,0,0,1,214.4,27.6a.686.686,0,0,1,.718-.677.721.721,0,0,1,.781.664,7.96,7.96,0,0,1,.005.8h0" transform="translate(-193.923 -24.373)" fill="#11163f"/>
    <path id="Path_1680" data-name="Path 1680" d="M247.9,28.431c0,.2,0,.41,0,.614-.011.544-.317.892-.774.884a.78.78,0,0,1-.748-.861c-.008-.441-.009-.882,0-1.323a.762.762,0,1,1,1.52-.023c.009.236,0,.472,0,.709" transform="translate(-222.867 -24.368)" fill="#11163f"/>
    <path id="Path_1681" data-name="Path 1681" d="M128.135,100.587c0,.267.016.535,0,.8a.748.748,0,0,1-.778.723.737.737,0,0,1-.732-.719c-.022-.533-.023-1.068,0-1.6a.735.735,0,0,1,.749-.7.747.747,0,0,1,.755.7c.023.265,0,.533,0,.8h0" transform="translate(-114.526 -89.693)" fill="#11163f"/>
    <path id="Path_1682" data-name="Path 1682" d="M160.053,100.622c0,.267.018.535,0,.8a.745.745,0,0,1-.749.7.732.732,0,0,1-.757-.692c-.026-.548-.027-1.1,0-1.647a.754.754,0,0,1,1.5-.011,6.572,6.572,0,0,1,.007.846h0" transform="translate(-143.4 -89.709)" fill="#11163f"/>
    <path id="Path_1683" data-name="Path 1683" d="M190.515,100.605c0-.267-.016-.535,0-.8a.755.755,0,0,1,1.509.008c.023.517.022,1.036,0,1.553a.741.741,0,0,1-.76.741.751.751,0,0,1-.754-.749c-.015-.25,0-.5,0-.753Z" transform="translate(-172.333 -89.69)" fill="#11163f"/>
    <path id="Path_1684" data-name="Path 1684" d="M238.406,100.585c0-.267-.018-.535,0-.8a.746.746,0,0,1,.756-.7.736.736,0,0,1,.749.7c.026.532.024,1.067,0,1.6a.737.737,0,0,1-.734.718.748.748,0,0,1-.776-.725c-.019-.265,0-.533,0-.8h0" transform="translate(-215.655 -89.693)" fill="#11163f"/>
    <path id="Path_1685" data-name="Path 1685" d="M271.8,100.627c0,.251.015.5,0,.753a.749.749,0,0,1-.772.73.735.735,0,0,1-.738-.713c-.023-.533-.023-1.068,0-1.6a.735.735,0,0,1,.743-.709.751.751,0,0,1,.765.738c.018.266,0,.533,0,.8" transform="translate(-244.488 -89.692)" fill="#11163f"/>
    <path id="Path_1686" data-name="Path 1686" d="M302.257,100.605c0-.267-.016-.535,0-.8a.755.755,0,0,1,1.509.008c.023.517.022,1.036,0,1.553a.741.741,0,0,1-.76.741.751.751,0,0,1-.754-.749c-.015-.25,0-.5,0-.753h0" transform="translate(-273.415 -89.69)" fill="#11163f"/>
  </g>
</svg>
