<svg id="Group_1039" data-name="Group 1039" xmlns="http://www.w3.org/2000/svg" xmlns:xlink="http://www.w3.org/1999/xlink" width="38" height="44" viewBox="0 0 38 44">
  <defs>
    <clipPath id="clip-path">
      <rect id="Rectangle_720" data-name="Rectangle 720" width="38" height="44" fill="#11163f"/>
    </clipPath>
  </defs>
  <g id="Group_1037" data-name="Group 1037" clip-path="url(#clip-path)">
    <path id="Path_1694" data-name="Path 1694" d="M.461,44A1.306,1.306,0,0,1,0,42.891q.006-19.4,0-38.81c0-.892.272-1.155,1.178-1.156.958,0,1.917-.014,2.875.006.376.008.493-.131.479-.476-.019-.486-.018-.973,0-1.459.031-.747.3-.991,1.069-.991Q15.937,0,26.266,0a1.357,1.357,0,0,1,1.019.409q5.06,4.925,10.135,9.835a1.5,1.5,0,0,1,.485,1.15q-.005,13.566,0,27.133c0,.854-.286,1.121-1.171,1.122-.973,0-1.947.01-2.919,0-.327,0-.445.111-.441.425.011.959.005,1.918,0,2.876A1.035,1.035,0,0,1,32.844,44ZM6.154,19.768q0,8.822,0,17.643c0,.65,0,.651.679.651H35.584c.683,0,.683,0,.683-.648q0-12.471,0-24.941c0-.1-.007-.2,0-.3.02-.259-.1-.361-.365-.353-.339.01-.678,0-1.017,0q-4.025,0-8.05,0c-.843,0-1.142-.29-1.161-1.108,0-.129,0-.258,0-.386q0-4.1,0-8.2c0-.6,0-.6-.607-.6H6.753c-.6,0-.6,0-.6.594q0,8.822,0,17.643M1.639,23.48q0,9.185,0,18.371c0,.653,0,.653.672.653H31.1c.088,0,.177-.007.265,0,.285.024.395-.094.389-.374-.014-.615,0-1.23,0-1.846,0-.637,0-.637-.642-.637H6.034c-1.336,0-1.5-.159-1.5-1.448q0-16.418,0-32.835c0-.143-.009-.287,0-.429.023-.31-.113-.441-.439-.433-.575.014-1.15,0-1.725,0-.731,0-.731,0-.731.69q0,9.142,0,18.285M27.3,2.752c0,2.393,0,4.764,0,7.135,0,.349.213.344.464.344q3.489,0,6.978,0c.09,0,.208.051.244-.023L27.3,2.752" transform="translate(0 0.001)" fill="#11163f"/>
    <path id="Path_1695" data-name="Path 1695" d="M163.577,316.235h-8.669a2.556,2.556,0,0,1-.485-.018.747.747,0,0,1-.665-.7.722.722,0,0,1,.554-.782,2.05,2.05,0,0,1,.654-.083q8.647,0,17.293,0a2.446,2.446,0,0,1,.611.071.724.724,0,0,1,.574.8.751.751,0,0,1-.713.7,4.467,4.467,0,0,1-.486.011h-8.669" transform="translate(-140.125 -287.578)" fill="#11163f"/>
    <path id="Path_1696" data-name="Path 1696" d="M163.594,161.755q4.444,0,8.889,0c.62,0,.951.279.949.775a.7.7,0,0,1-.566.724,3.042,3.042,0,0,1-.744.075q-8.535.006-17.07,0a2.417,2.417,0,0,1-.744-.077.74.74,0,0,1-.569-.775.776.776,0,0,1,.7-.715,4.149,4.149,0,0,1,.486-.012h8.668" transform="translate(-140.11 -147.837)" fill="#11163f"/>
    <path id="Path_1697" data-name="Path 1697" d="M163.652,212.7q4.4,0,8.8,0c.656,0,1.006.268,1.018.761a.712.712,0,0,1-.534.749,1.854,1.854,0,0,1-.61.079H154.948a1.965,1.965,0,0,1-.568-.062.734.734,0,0,1-.594-.756.742.742,0,0,1,.629-.733,2.485,2.485,0,0,1,.571-.037q4.333,0,8.667,0" transform="translate(-140.153 -194.4)" fill="#11163f"/>
    <path id="Path_1698" data-name="Path 1698" d="M163.553,265.245h-8.667c-.769,0-1.183-.286-1.174-.8.009-.5.416-.784,1.157-.784h17.422a1.578,1.578,0,0,1,.608.083.725.725,0,0,1,.5.73.715.715,0,0,1-.488.7,1.622,1.622,0,0,1-.652.082h-8.711" transform="translate(-140.086 -240.97)" fill="#11163f"/>
    <path id="Path_1699" data-name="Path 1699" d="M163.634,367.812q-4.443,0-8.887,0a.912.912,0,0,1-.854-.336.747.747,0,0,1,.534-1.176,2.913,2.913,0,0,1,.4-.014h17.6a3.032,3.032,0,0,1,.353.012.755.755,0,0,1,.011,1.5,3.8,3.8,0,0,1-.486.012h-8.666" transform="translate(-140.124 -334.774)" fill="#11163f"/>
    <path id="Path_1700" data-name="Path 1700" d="M105.7,82.122c-.693,0-1.386,0-2.079,0s-.951-.264-.953-.946q-.005-2,0-3.993c0-.71.263-.991,1-1.016.707-.024,1.415-.008,2.123-.008.649,0,1.3-.014,1.946.007.77.026,1.069.324,1.074,1.065q.015,1.932,0,3.864c-.006.749-.306,1.025-1.079,1.028-.678,0-1.357,0-2.035,0m1.481-2.912c0-.371-.008-.742,0-1.112.007-.246-.076-.368-.352-.364-.72.01-1.44.008-2.16,0-.253,0-.385.08-.383.342q.008,1.091,0,2.181c0,.262.13.345.383.342.72-.008,1.44-.01,2.159,0,.276,0,.36-.117.352-.364-.011-.342,0-.684,0-1.026" transform="translate(-93.561 -69.601)" fill="#11163f"/>
    <path id="Path_1701" data-name="Path 1701" d="M104.267,212.7c.25,0,.5-.015.751,0a.77.77,0,0,1,.781.728.708.708,0,0,1-.639.793,4.846,4.846,0,0,1-1.8,0,.721.721,0,0,1-.639-.8.782.782,0,0,1,.749-.717c.262-.026.53,0,.794,0v0" transform="translate(-93.615 -194.398)" fill="#11163f"/>
    <path id="Path_1702" data-name="Path 1702" d="M104.266,265c-.25,0-.5.018-.75,0a.793.793,0,0,1-.792-.723.742.742,0,0,1,.68-.812,5.775,5.775,0,0,1,1.714-.006.734.734,0,0,1,.681.81.768.768,0,0,1-.74.723,7.026,7.026,0,0,1-.794.005Z" transform="translate(-93.616 -240.73)" fill="#11163f"/>
    <path id="Path_1703" data-name="Path 1703" d="M104.238,161.775c.28,0,.56-.017.838,0a.737.737,0,0,1,.714.689.716.716,0,0,1-.613.812,5,5,0,0,1-1.841,0,.731.731,0,0,1-.614-.816.748.748,0,0,1,.722-.685c.263-.02.529,0,.794,0" transform="translate(-93.613 -147.85)" fill="#11163f"/>
    <path id="Path_1704" data-name="Path 1704" d="M104.241,316.013c-.265,0-.531.018-.794,0a.764.764,0,0,1-.724-.688.731.731,0,0,1,.614-.816,4.842,4.842,0,0,1,1.8-.014.726.726,0,0,1,.657.823.76.76,0,0,1-.8.7c-.25.013-.5,0-.75,0v0" transform="translate(-93.613 -287.363)" fill="#11163f"/>
    <path id="Path_1705" data-name="Path 1705" d="M104.271,367.776c-.279,0-.56.017-.837,0a.733.733,0,0,1-.7-.742.714.714,0,0,1,.684-.754c.571-.028,1.146-.027,1.718,0a.706.706,0,0,1,.673.759.723.723,0,0,1-.7.739c-.278.019-.558,0-.837,0" transform="translate(-93.625 -334.744)" fill="#11163f"/>
  </g>
</svg>
