  <svg id="Logo" xmlns="http://www.w3.org/2000/svg" width="207.963" height="36.789" viewBox="0 0 207.963 36.789">
  <g id="Group_125" data-name="Group 125" transform="translate(124.078)">
    <path id="Path_445" data-name="Path 445" d="M337.752,188.706a13.148,13.148,0,0,0-1.733,2.463,13,13,0,0,0-1.063,2.576q-.11.379-.2.767c.059.08.117.16.177.24.75,1.014,1.581,2.062,2.483,3.127q.312.369.636.741.3.347.615.7c.229.256.462.515.7.772l.366.028.432.033a5.386,5.386,0,0,1,4.543,4.543l.028.373.028.361q.45.4.895.792c.228.2.454.393.681.584q.388.33.775.649c1.067.88,2.116,1.69,3.13,2.421l.266.19c.262-.063.521-.133.777-.212a12.961,12.961,0,0,0,2.553-1.094,13.18,13.18,0,0,0,2.418-1.746q.373-.34.719-.708c.294-.312.575-.639.837-.978q.319-.412.605-.85a12.942,12.942,0,0,0,2.123-7.11,13.1,13.1,0,0,0-13.053-13.053,12.953,12.953,0,0,0-7.243,2.211c-.287.194-.567.4-.837.613-.337.267-.661.55-.969.848Q338.085,188.333,337.752,188.706Zm18.982,4.875a28,28,0,0,0-18.478,0,9.979,9.979,0,0,1,18.478,0Zm-9.239,1.491a2.294,2.294,0,1,1-2.295,2.294A2.291,2.291,0,0,1,347.494,195.072Zm3.146,11.772q-.267.09-.541.165l.04-.516.14-1.8a5.387,5.387,0,0,1,4.543-4.543l2.317-.179A10.118,10.118,0,0,1,350.64,206.844Zm-14.82-7.368q-.716-.846-1.371-1.675a13.1,13.1,0,0,0,12.786,12.615q-.847-.651-1.715-1.366-.385-.318-.775-.649-.339-.288-.68-.585-.549-.476-1.1-.977-.487-.441-.976-.9h0q-.769-.719-1.537-1.478t-1.475-1.494q-.475-.494-.934-.988-.5-.533-.969-1.063-.312-.351-.616-.7Q336.133,199.845,335.82,199.476Z" transform="translate(-330.292 -183.153)" fill="#eb3e16"/>
    <path id="Path_446" data-name="Path 446" d="M328.668,183.1a1.752,1.752,0,0,0-.434.779,2.273,2.273,0,0,0-.052.235c0,.022-.007.045-.01.069s-.011.076-.015.115c-.2,1.938,1.353,5.3,4.153,9.2.037.053.076.1.114.157.059.084.121.168.183.252s.117.16.177.24c.75,1.014,1.581,2.062,2.483,3.127q.313.369.636.741.3.347.616.7c.229.256.462.515.7.772l.27.293q.458.493.934.988.717.748,1.475,1.494t1.536,1.478h0q.488.459.976.9l.206.186q.449.4.895.792.342.3.68.584.389.33.775.649c1.067.88,2.116,1.689,3.13,2.421l.266.19.26.183.13.092c3.917,2.734,7.278,4.244,9.218,4.041l.127-.016.092-.016c.081-.014.159-.033.234-.054a1.749,1.749,0,0,0,.774-.445c1.329-1.345.082-4.932-2.925-9.372l0,0-.02-.031c-.057-.084-.115-.169-.174-.254l-.528.891c.032.063.063.126.092.188l.028.059.013.026a7.664,7.664,0,0,1,.8,2.6,2.447,2.447,0,0,1-.045.714,1.472,1.472,0,0,1-.051.178,1.365,1.365,0,0,1-.1.213,1.188,1.188,0,0,1-.2.263,1.418,1.418,0,0,1-.833.386,2.416,2.416,0,0,1-.266.022l-.1,0c-.047,0-.1,0-.144,0a8.033,8.033,0,0,1-2.874-.884l-.028-.014-.15-.072-.181-.092a26.638,26.638,0,0,1-3.017-1.818l-.006,0c-.139-.095-.277-.192-.418-.292l-.082-.059c-.2-.142-.4-.287-.6-.437q-.236-.175-.475-.356-.319-.242-.642-.5-.277-.218-.557-.446c-.3-.244-.6-.495-.906-.754-.13-.111-.261-.222-.392-.336q-.494-.43-.993-.883l-.212-.194q-.784-.719-1.567-1.494-.813-.8-1.567-1.607l-.142-.152q-.519-.555-1-1.106-.14-.159-.278-.317-.339-.387-.66-.772c-.151-.181-.3-.361-.445-.539q-.294-.362-.573-.718c-.116-.149-.229-.3-.341-.443q-.27-.356-.524-.706c-.1-.132-.19-.264-.282-.393a26.833,26.833,0,0,1-1.876-3.022c-.028-.051-.054-.1-.08-.154s-.059-.114-.086-.172v0a8.014,8.014,0,0,1-.936-2.922c0-.046,0-.091,0-.134,0-.028,0-.057,0-.084a2.468,2.468,0,0,1,.02-.266,1.419,1.419,0,0,1,.376-.837,1.213,1.213,0,0,1,.274-.207,1.334,1.334,0,0,1,.209-.094,1.6,1.6,0,0,1,.167-.051,2.471,2.471,0,0,1,.713-.054,7.7,7.7,0,0,1,2.643.783l.022.01.033.014c.063.029.126.059.19.09q.434-.29.885-.539l-.256-.17,0,0-.011-.007C333.612,182.962,330,181.755,328.668,183.1Z" transform="translate(-328.14 -182.553)" fill="#eb3e16"/>
  </g>
  <g id="Group_126" data-name="Group 126" transform="translate(0 2.971)">
    <path id="Path_447" data-name="Path 447" d="M139.816,199.309c0-7.065,5.182-12.246,12.529-12.246,6.17,0,10.785,3.674,12.01,9.043h-4.522a8.1,8.1,0,1,0,0,6.405h4.522c-1.225,5.37-5.841,9.043-12.01,9.043C145,211.555,139.816,206.374,139.816,199.309Z" transform="translate(-139.816 -187.063)" fill="#0d1646"/>
    <path id="Path_448" data-name="Path 448" d="M180.223,199.5c0-7.3,5.181-12.435,12.576-12.435,7.3,0,12.388,4.993,12.388,12.435v11.445h-4.1v-5.087c-1.554,3.768-4.992,5.7-9.043,5.7A11.587,11.587,0,0,1,180.223,199.5Zm20.536-.188a8.008,8.008,0,1,0-8.007,8.1A7.69,7.69,0,0,0,200.759,199.309Z" transform="translate(-153.601 -187.063)" fill="#0d1646"/>
    <path id="Path_449" data-name="Path 449" d="M224.512,197.236c0-6.876,4.05-10.173,10.032-10.173,5.934,0,9.984,3.3,9.984,10.221v.236H240.1v-.283c0-4.286-2.261-6.029-5.557-6.029-3.345,0-5.558,1.743-5.558,6.029v13.706h-4.474Z" transform="translate(-168.71 -187.063)" fill="#0d1646"/>
    <path id="Path_450" data-name="Path 450" d="M257.347,204.207h4.521c.095,1.932,1.884,3.3,5.134,3.3,3.391,0,5.134-1.461,5.134-3.3,0-2.213-2.449-2.5-5.37-2.873-4.05-.518-8.949-1.272-8.949-6.594,0-4.568,3.58-7.677,9.137-7.677s9,3.155,9.091,7.159h-4.428c-.141-1.789-1.789-3.108-4.615-3.108-2.967,0-4.663,1.413-4.663,3.249,0,2.214,2.449,2.45,5.322,2.826,4.051.519,9,1.272,9,6.594,0,4.71-3.815,7.771-9.655,7.771S257.489,208.447,257.347,204.207Z" transform="translate(-179.911 -187.063)" fill="#0d1646"/>
    <path id="Path_451" data-name="Path 451" d="M291.456,199.5c0-7.583,5.181-12.435,12.387-12.435,7.394,0,12.575,5.087,12.575,12.387,0,7.724-5.745,12.1-11.822,12.1a9.588,9.588,0,0,1-8.666-4.709v14.036h-4.474Zm20.441-.188a7.69,7.69,0,0,0-8.007-8.1c-4.757,0-7.96,3.391-7.96,8.1s3.2,8.1,7.96,8.1A7.69,7.69,0,0,0,311.9,199.309Z" transform="translate(-191.548 -187.063)" fill="#0d1646"/>
    <path id="Path_452" data-name="Path 452" d="M377.208,199.309c0-7.065,5.181-12.246,12.528-12.246,6.171,0,10.786,3.674,12.01,9.043h-4.522a8.1,8.1,0,1,0,0,6.405h4.522c-1.224,5.37-5.839,9.043-12.01,9.043C382.389,211.555,377.208,206.374,377.208,199.309Z" transform="translate(-220.802 -187.063)" fill="#0d1646"/>
    <path id="Path_453" data-name="Path 453" d="M417.572,199.309c0-7.065,5.181-12.246,12.528-12.246s12.435,5.181,12.435,12.246v1.648H422.281c.66,4.145,3.769,6.453,7.819,6.453,3.014,0,5.134-.942,6.5-2.967h4.945c-1.789,4.333-6.029,7.112-11.445,7.112C422.753,211.555,417.572,206.374,417.572,199.309Zm20.253-2.355c-.895-3.722-3.956-5.747-7.724-5.747-3.862,0-6.782,2.072-7.677,5.747Z" transform="translate(-234.572 -187.063)" fill="#0d1646"/>
  </g>
</svg>
