<svg id="favorite_icon" data-name="favorite icon" xmlns="http://www.w3.org/2000/svg" width="36" height="35" viewBox="0 0 36 35">
  <rect id="Rectangle_65" data-name="Rectangle 65" width="36" height="35" rx="8" fill="rgba(251,86,7,0.24)"/>
  <path id="Icon_ionic-ios-heart" data-name="Icon ionic-ios-heart" d="M15.067,3.938h-.038a4.4,4.4,0,0,0-3.654,1.95,4.4,4.4,0,0,0-3.654-1.95H7.683A4.294,4.294,0,0,0,3.375,8.175a8.984,8.984,0,0,0,1.838,4.976,31.909,31.909,0,0,0,6.162,5.786,31.909,31.909,0,0,0,6.162-5.786,8.984,8.984,0,0,0,1.838-4.976A4.294,4.294,0,0,0,15.067,3.938Z" transform="translate(6.625 6.063)" fill="#fb5607"/>
</svg>
