<svg id="favorite_icon" data-name="favorite icon" xmlns="http://www.w3.org/2000/svg" width="56" height="54" viewBox="0 0 56 54">
  <rect id="Rectangle_65" data-name="Rectangle 65" width="56" height="54" rx="8" fill="#e8e8e8"/>
  <path id="Icon_material-favorite-border" data-name="Icon material-favorite-border" d="M20.4,4.5A7.189,7.189,0,0,0,15,7.006,7.189,7.189,0,0,0,9.6,4.5,6.533,6.533,0,0,0,3,11.094c0,4.532,4.08,8.225,10.26,13.835L15,26.5l1.74-1.583C22.92,19.319,27,15.626,27,11.094A6.533,6.533,0,0,0,20.4,4.5ZM15.12,23.143l-.12.12-.12-.12C9.168,17.976,5.4,14.559,5.4,11.094A4.1,4.1,0,0,1,9.6,6.9a4.691,4.691,0,0,1,4.284,2.829h2.244A4.662,4.662,0,0,1,20.4,6.9a4.1,4.1,0,0,1,4.2,4.2C24.6,14.559,20.832,17.976,15.12,23.143Z" transform="translate(13 11.5)"/>
</svg>
