<svg id="Georgia" xmlns="http://www.w3.org/2000/svg" xmlns:xlink="http://www.w3.org/1999/xlink" width="20" height="20" viewBox="0 0 20 20">
  <defs>
    <clipPath id="clip-path">
      <circle id="Ellipse_28" data-name="Ellipse 28" cx="10" cy="10" r="10" transform="translate(1297 2152)" fill="#fff"/>
    </clipPath>
  </defs>
  <g id="Georgia-2" data-name="Georgia" transform="translate(-1297 -2152)" clip-path="url(#clip-path)">
    <g id="georgia_1_" data-name="georgia (1)" transform="translate(1296.004 2153.753)">
      <path id="Path_1179" data-name="Path 1179" d="M0,0H25.729V19.3H0Z" transform="translate(-1.868 -1.478)" fill="#fff"/>
      <path id="Path_1180" data-name="Path 1180" d="M272,0h3.89V19.3H272Z" transform="translate(-262.95 -1.478)" fill="red"/>
      <path id="Path_1181" data-name="Path 1181" d="M0,192H21.993v3.3H0Z" transform="translate(0 -185.402)" fill="red"/>
      <path id="Path_1182" data-name="Path 1182" d="M95.816,64.967a8.535,8.535,0,0,1,.136-1.071s-.338.035-.509.035-.509-.035-.509-.035a8.538,8.538,0,0,1,.136,1.071A8.558,8.558,0,0,1,94,64.831a3.758,3.758,0,0,1,0,1.018,8.56,8.56,0,0,1,1.071-.136,8.533,8.533,0,0,1-.136,1.071,3.758,3.758,0,0,1,1.018,0,8.539,8.539,0,0,1-.136-1.071,8.56,8.56,0,0,1,1.071.136s-.035-.338-.035-.509.035-.509.035-.509A8.56,8.56,0,0,1,95.816,64.967Zm12.646-9.9A8.556,8.556,0,0,1,108.6,54s-.338.035-.509.035S107.58,54,107.58,54a8.563,8.563,0,0,1,.136,1.071,8.56,8.56,0,0,1-1.071-.136,3.758,3.758,0,0,1,0,1.018,8.559,8.559,0,0,1,1.071-.136,8.552,8.552,0,0,1-.136,1.071,3.758,3.758,0,0,1,1.018,0,8.562,8.562,0,0,1-.136-1.071,8.559,8.559,0,0,1,1.071.136s-.035-.338-.035-.509.035-.509.035-.509A8.56,8.56,0,0,1,108.462,55.071Zm-12.646,0A8.528,8.528,0,0,1,95.952,54s-.338.035-.509.035S94.934,54,94.934,54a8.538,8.538,0,0,1,.136,1.071A8.559,8.559,0,0,1,94,54.934a3.758,3.758,0,0,1,0,1.018,8.559,8.559,0,0,1,1.071-.136,8.533,8.533,0,0,1-.136,1.071,3.759,3.759,0,0,1,1.018,0,8.539,8.539,0,0,1-.136-1.071,8.559,8.559,0,0,1,1.071.136s-.035-.338-.035-.509.035-.509.035-.509A8.561,8.561,0,0,1,95.816,55.071Zm12.646,9.9A8.556,8.556,0,0,1,108.6,63.9s-.338.035-.509.035-.509-.035-.509-.035a8.563,8.563,0,0,1,.136,1.071,8.559,8.559,0,0,1-1.071-.136,3.758,3.758,0,0,1,0,1.018,8.56,8.56,0,0,1,1.071-.136,8.551,8.551,0,0,1-.136,1.071,3.757,3.757,0,0,1,1.018,0,8.562,8.562,0,0,1-.136-1.071,8.56,8.56,0,0,1,1.071.136s-.035-.338-.035-.509.035-.509.035-.509A8.559,8.559,0,0,1,108.462,64.967Z" transform="translate(-90.77 -52.144)" fill="red" style="mix-blend-mode: multiply;isolation: isolate"/>
    </g>
  </g>
</svg>
