<svg xmlns="http://www.w3.org/2000/svg" xmlns:xlink="http://www.w3.org/1999/xlink" width="61" height="61" viewBox="0 0 61 61">
  <defs>
    <clipPath id="clip-path">
      <rect id="Rectangle_664" data-name="Rectangle 664" width="61" height="61" transform="translate(994 1811)" fill="none"/>
    </clipPath>
  </defs>
  <g id="hyundai" transform="translate(-994 -1811)" clipPath="url(#clipPath)">
    <path id="logo" d="M97.729,128.367h5.325v22.375H97.729v-8.974H88.1v8.974H82.772V128.367H88.1v8.5h9.632Zm19.264,8.854-5.564-8.854h-6.282l9.213,14.6v7.718h5.325v-7.718l9.213-14.6h-6.282Zm28.956,7.538a1.136,1.136,0,0,1-1.137,1.137h-8.555V128.367h-5.325v22.375h15.794a4.238,4.238,0,0,0,4.547-4.607V128.367H145.95Zm25.965-16.393H156.18v22.375h5.325V133.213h8.555a1.136,1.136,0,0,1,1.137,1.137v16.393h5.325V132.974a4.778,4.778,0,0,0-1.2-3.35A4.7,4.7,0,0,0,171.915,128.367Zm28.6,1.256a4.466,4.466,0,0,1,1.256,3.35v13.162a4.56,4.56,0,0,1-1.256,3.35,4.466,4.466,0,0,1-3.35,1.256H181.428V128.367h15.735A4.559,4.559,0,0,1,200.512,129.624Zm-4.128,4.726a1.116,1.116,0,0,0-1.2-1.137h-8.5V145.9h8.555a1.1,1.1,0,0,0,1.137-1.137V134.35Zm14.6-5.983h15.735v22.375h-5.325V143.8H211.7v6.94h-5.325V132.974a4.245,4.245,0,0,1,4.607-4.607Zm.778,10.589h9.692v-5.743H212.9a1.134,1.134,0,0,0-1.137,1.137v4.607Zm20.1-10.589v22.375h5.325V128.367h-5.325ZM71.585,139.555c0,8.615-13.641,15.555-30.392,15.555-16.811,0-30.392-7-30.392-15.555C10.8,130.94,24.441,124,41.192,124,58,124,71.585,130.94,71.585,139.555ZM39.816,137.4A46.207,46.207,0,0,0,47,135.128c5.743-2.214,8.795-4.367,9.752-5.265.12-.12.239-.179.3-.239a.738.738,0,0,0,.239-.479c0-.239-.179-.419-.6-.538-.06,0-.12-.06-.179-.06a53.3,53.3,0,0,0-15.2-2.094h-.3a4.831,4.831,0,0,0-2.034.479c-1.974,1.017-2.872,3.53-3.41,4.667h0C32.517,138.6,38.261,137.76,39.816,137.4Zm-19.5,9.393c1.2-2.692,5.265-12.025,10.649-18.367a1.252,1.252,0,0,0,.239-.359c.12-.239.12-.359,0-.479-.179-.179-.6-.179-1.2-.06h0c-9.872,2.034-16.752,6.641-16.752,12.025,0,2.991,2.094,5.743,5.684,7.9.3.179.479.239.658.179a.521.521,0,0,0,.479-.359C20.193,147.213,20.253,147.034,20.313,146.794Zm22.375-5.145a46.208,46.208,0,0,0-7.179,2.273,35.615,35.615,0,0,0-9.752,5.265c-.12.12-.239.18-.3.239a.739.739,0,0,0-.239.479c0,.239.179.419.6.538.06,0,.12.06.179.06a53.3,53.3,0,0,0,15.2,2.094h.3a4.832,4.832,0,0,0,2.034-.479c1.974-1.017,2.872-3.53,3.41-4.667h0C49.927,140.453,44.184,141.35,42.688,141.649Zm26.444-2.094c0-2.991-2.094-5.743-5.684-7.9-.3-.18-.479-.239-.658-.18a.688.688,0,0,0-.538.359h0a3.553,3.553,0,0,0-.239.479c-1.137,2.692-5.265,12.025-10.649,18.367a3.664,3.664,0,0,0-.239.359c-.12.239-.12.359,0,.479.12.179.538.179,1.2.06C62.192,149.546,69.132,144.94,69.132,139.555Z" transform="translate(983.2 1702.701)" fill="#002e6b"/>
  </g>
</svg>
