<svg id="instagram_web" data-name="instagram web" xmlns="http://www.w3.org/2000/svg" width="50" height="50" viewBox="0 0 50 50">
  <circle id="Ellipse_15" data-name="Ellipse 15" cx="25" cy="25" r="25" fill="#f4f4f5"/>
  <path id="Path_41" data-name="Path 41" d="M9,1.6a27.6,27.6,0,0,1,3.6.1,4.638,4.638,0,0,1,1.7.3A3.512,3.512,0,0,1,16,3.7a4.638,4.638,0,0,1,.3,1.7c0,.9.1,1.2.1,3.6a27.6,27.6,0,0,1-.1,3.6,4.638,4.638,0,0,1-.3,1.7A3.512,3.512,0,0,1,14.3,16a4.638,4.638,0,0,1-1.7.3c-.9,0-1.2.1-3.6.1a27.6,27.6,0,0,1-3.6-.1A4.638,4.638,0,0,1,3.7,16,3.512,3.512,0,0,1,2,14.3a4.638,4.638,0,0,1-.3-1.7c0-.9-.1-1.2-.1-3.6a27.6,27.6,0,0,1,.1-3.6A4.638,4.638,0,0,1,2,3.7a3.592,3.592,0,0,1,.7-1,1.691,1.691,0,0,1,1-.7,4.638,4.638,0,0,1,1.7-.3A27.6,27.6,0,0,1,9,1.6M9,0A29.547,29.547,0,0,0,5.3.1,6.174,6.174,0,0,0,3.1.5a3.915,3.915,0,0,0-1.6,1,3.915,3.915,0,0,0-1,1.6A4.556,4.556,0,0,0,.1,5.3,29.547,29.547,0,0,0,0,9a29.547,29.547,0,0,0,.1,3.7,6.174,6.174,0,0,0,.4,2.2,3.915,3.915,0,0,0,1,1.6,3.915,3.915,0,0,0,1.6,1,6.174,6.174,0,0,0,2.2.4A29.547,29.547,0,0,0,9,18a29.547,29.547,0,0,0,3.7-.1,6.174,6.174,0,0,0,2.2-.4,4.2,4.2,0,0,0,2.6-2.6,6.174,6.174,0,0,0,.4-2.2c0-1,.1-1.3.1-3.7a29.547,29.547,0,0,0-.1-3.7,6.174,6.174,0,0,0-.4-2.2,3.915,3.915,0,0,0-1-1.6,3.915,3.915,0,0,0-1.6-1A6.174,6.174,0,0,0,12.7.1,29.547,29.547,0,0,0,9,0M9,4.4A4.526,4.526,0,0,0,4.4,9,4.6,4.6,0,1,0,9,4.4M9,12A2.946,2.946,0,0,1,6,9,2.946,2.946,0,0,1,9,6a2.946,2.946,0,0,1,3,3,2.946,2.946,0,0,1-3,3m4.8-8.9a1.1,1.1,0,1,0,1.1,1.1,1.11,1.11,0,0,0-1.1-1.1" transform="translate(16 16)"/>
</svg>
