<svg xmlns="http://www.w3.org/2000/svg" width="21" height="51" viewBox="0 0 21 51">
  <g id="right" transform="translate(492.478 1440.698) rotate(180)">
    <path id="Rectangle_67" data-name="Rectangle 67" d="M0,0H0A21,21,0,0,1,21,21v9A21,21,0,0,1,0,51H0a0,0,0,0,1,0,0V0A0,0,0,0,1,0,0Z" transform="translate(492.478 1440.698) rotate(180)" opacity="0.496"/>
    <path id="Icon_ionic-ios-arrow-back" data-name="Icon ionic-ios-arrow-back" d="M2.11,6.5,6.743,1.583a.966.966,0,0,0,0-1.312A.843.843,0,0,0,5.5.271L.255,5.84A.969.969,0,0,0,.229,7.121L5.5,12.729a.844.844,0,0,0,1.239,0,.966.966,0,0,0,0-1.312Z" transform="translate(486.478 1421.697) rotate(180)" fill="#fff"/>
  </g>
</svg>
