<svg xmlns="http://www.w3.org/2000/svg" width="171.5" height="27.001" viewBox="0 0 171.5 27.001">
  <g id="Logo" transform="translate(31.5 2.501)">
    <g id="Group_16" data-name="Group 16" transform="translate(-31 -2)">
      <path id="Path_57" data-name="Path 57" d="M4.2,16.407A8.273,8.273,0,0,1,1.12,13.255,8.973,8.973,0,0,1,0,8.795,9.425,9.425,0,0,1,1.073,4.272,7.966,7.966,0,0,1,4.038,1.135,8.123,8.123,0,0,1,8.3,0a7.865,7.865,0,0,1,6.4,3.026.968.968,0,0,1,.252.662,1.077,1.077,0,0,1-.536.882,1.062,1.062,0,0,1-.6.189,1.264,1.264,0,0,1-.914-.473,6.448,6.448,0,0,0-2.082-1.56A5.99,5.99,0,0,0,8.3,2.207,5.778,5.778,0,0,0,5.2,3.043a5.555,5.555,0,0,0-2.1,2.348,7.63,7.63,0,0,0-.742,3.4,7.087,7.087,0,0,0,.789,3.357A5.866,5.866,0,0,0,5.362,14.5a6.194,6.194,0,0,0,3.249.851A5.947,5.947,0,0,0,12.681,14a1.306,1.306,0,0,1,.851-.347,1.088,1.088,0,0,1,.694.252,1.106,1.106,0,0,1,.442.851.9.9,0,0,1-.316.694,8.1,8.1,0,0,1-5.741,2.112A8.543,8.543,0,0,1,4.2,16.407" transform="translate(30.272 1.725)" fill="#20003f"/>
      <path id="Path_58" data-name="Path 58" d="M60.8,1.151a8.386,8.386,0,0,1,3.154,3.167A8.875,8.875,0,0,1,65.11,8.794V16.2a1.155,1.155,0,0,1-.347.851,1.2,1.2,0,0,1-.883.347A1.229,1.229,0,0,1,63,17.068a1.142,1.142,0,0,1-.346-.867V14.31a7.814,7.814,0,0,1-2.808,2.38,8.151,8.151,0,0,1-3.754.867,8.307,8.307,0,0,1-7.4-4.3,8.974,8.974,0,0,1-1.12-4.46,8.867,8.867,0,0,1,1.151-4.476,8.376,8.376,0,0,1,3.154-3.167,9.233,9.233,0,0,1,8.927,0M59.59,14.5a6.141,6.141,0,0,0,2.287-2.348,6.769,6.769,0,0,0,.836-3.357,6.773,6.773,0,0,0-.836-3.357,6.361,6.361,0,0,0-11.1,0,6.765,6.765,0,0,0-.836,3.357,6.761,6.761,0,0,0,.836,3.357,6.1,6.1,0,0,0,2.3,2.348,6.389,6.389,0,0,0,3.265.851A6.3,6.3,0,0,0,59.59,14.5" transform="translate(0.235 1.725)" fill="#20003f"/>
      <path id="Path_1706" data-name="Path 1706" d="M60.8,1.151a8.386,8.386,0,0,1,3.154,3.167A8.875,8.875,0,0,1,65.11,8.794V16.2a1.155,1.155,0,0,1-.347.851,1.2,1.2,0,0,1-.883.347A1.229,1.229,0,0,1,63,17.068a1.142,1.142,0,0,1-.346-.867V14.31a7.814,7.814,0,0,1-2.808,2.38,8.151,8.151,0,0,1-3.754.867,8.307,8.307,0,0,1-7.4-4.3,8.974,8.974,0,0,1-1.12-4.46,8.867,8.867,0,0,1,1.151-4.476,8.376,8.376,0,0,1,3.154-3.167,9.233,9.233,0,0,1,8.927,0M59.59,14.5a6.141,6.141,0,0,0,2.287-2.348,6.769,6.769,0,0,0,.836-3.357,6.773,6.773,0,0,0-.836-3.357,6.361,6.361,0,0,0-11.1,0,6.765,6.765,0,0,0-.836,3.357,6.761,6.761,0,0,0,.836,3.357,6.1,6.1,0,0,0,2.3,2.348,6.389,6.389,0,0,0,3.265.851A6.3,6.3,0,0,0,59.59,14.5" transform="translate(70.065 1.725)" fill="#20003f"/>
      <path id="Path_59" data-name="Path 59" d="M113.471.347a1.082,1.082,0,0,1,.773.977.967.967,0,0,1-.032.284.96.96,0,0,1-.394.6,1.463,1.463,0,0,1-.741.158q-.284,0-.978-.063a6.747,6.747,0,0,0-.757-.032,5.8,5.8,0,0,0-3.864,1.261,4.083,4.083,0,0,0-1.5,3.278v9.424a1.2,1.2,0,1,1-2.4,0V1.387A1.192,1.192,0,0,1,103.9.5a1.395,1.395,0,0,1,1.766,0,1.193,1.193,0,0,1,.315.882V2.774A6.257,6.257,0,0,1,108.314.725,6.63,6.63,0,0,1,111.373,0a5.223,5.223,0,0,1,2.1.347" transform="translate(-35.131 1.725)" fill="#20003f"/>
      <path id="Path_60" data-name="Path 60" d="M139.555,16.895a7.278,7.278,0,0,1-2.9-1.86,1.153,1.153,0,0,1-.316-.725,1.2,1.2,0,0,1,.5-.946,1.3,1.3,0,0,1,.789-.284,1.166,1.166,0,0,1,.915.441,4.833,4.833,0,0,0,2,1.355,7.721,7.721,0,0,0,2.76.473,5.9,5.9,0,0,0,3.312-.757,2.389,2.389,0,0,0,1.135-1.986,2.234,2.234,0,0,0-1.1-1.891,8.82,8.82,0,0,0-3.5-1.135,9.8,9.8,0,0,1-4.621-1.749A3.759,3.759,0,0,1,137,4.823a4.108,4.108,0,0,1,1.782-3.562A7.541,7.541,0,0,1,143.246,0a8.625,8.625,0,0,1,3.627.709,6.374,6.374,0,0,1,2.492,1.97,1.433,1.433,0,0,1,.252.725.963.963,0,0,1-.5.851,1.012,1.012,0,0,1-.6.158,1.447,1.447,0,0,1-1.1-.473,5.33,5.33,0,0,0-4.227-1.765,4.848,4.848,0,0,0-2.775.709,2.1,2.1,0,0,0-.063,3.593,9.081,9.081,0,0,0,3.47,1.088,9.849,9.849,0,0,1,4.826,1.844,4.051,4.051,0,0,1,1.451,3.168,4.144,4.144,0,0,1-.867,2.584,5.631,5.631,0,0,1-2.413,1.765,9.2,9.2,0,0,1-3.5.63,10.779,10.779,0,0,1-3.754-.662" transform="translate(-55.813 1.725)" fill="#20003f"/>
      <path id="Path_61" data-name="Path 61" d="M194.778,1.151a8.383,8.383,0,0,1,3.154,3.167,8.871,8.871,0,0,1,1.151,4.476,8.978,8.978,0,0,1-1.12,4.46,8.307,8.307,0,0,1-7.4,4.3,8.15,8.15,0,0,1-3.754-.867,7.8,7.8,0,0,1-2.807-2.38v9.235a1.187,1.187,0,0,1-1.23,1.229,1.146,1.146,0,0,1-.868-.347,1.227,1.227,0,0,1-.331-.882V16.485a.955.955,0,0,1-.031-.284V8.794A8.864,8.864,0,0,1,182.7,4.318a8.375,8.375,0,0,1,3.154-3.167,9.233,9.233,0,0,1,8.927,0M193.58,14.5a6.1,6.1,0,0,0,2.3-2.348,6.769,6.769,0,0,0,.836-3.357,6.773,6.773,0,0,0-.836-3.357,6.222,6.222,0,0,0-2.3-2.364,6.3,6.3,0,0,0-3.265-.867,6.22,6.22,0,0,0-5.536,3.23,6.765,6.765,0,0,0-.836,3.357,7.041,7.041,0,0,0,.031.788.352.352,0,0,1,.032.158,6.324,6.324,0,0,0,2.066,4.035,6.117,6.117,0,0,0,4.243,1.576,6.388,6.388,0,0,0,3.265-.851" transform="translate(-84.358 1.725)" fill="#20003f"/>
      <path id="Path_62" data-name="Path 62" d="M299.41,16.407a8.273,8.273,0,0,1-3.076-3.152,8.973,8.973,0,0,1-1.12-4.46,9.426,9.426,0,0,1,1.073-4.523,7.966,7.966,0,0,1,2.965-3.136A8.123,8.123,0,0,1,303.511,0a7.866,7.866,0,0,1,6.4,3.026.968.968,0,0,1,.252.662,1.077,1.077,0,0,1-.536.882,1.062,1.062,0,0,1-.6.189,1.264,1.264,0,0,1-.914-.473,6.449,6.449,0,0,0-2.082-1.56,5.99,5.99,0,0,0-2.523-.52,5.778,5.778,0,0,0-3.091.835,5.556,5.556,0,0,0-2.1,2.348,7.63,7.63,0,0,0-.742,3.4,7.087,7.087,0,0,0,.789,3.357,5.866,5.866,0,0,0,2.208,2.348,6.194,6.194,0,0,0,3.249.851A5.947,5.947,0,0,0,307.9,14a1.307,1.307,0,0,1,.851-.347,1.088,1.088,0,0,1,.694.252,1.106,1.106,0,0,1,.442.851.9.9,0,0,1-.316.694,8.1,8.1,0,0,1-5.741,2.112,8.543,8.543,0,0,1-4.416-1.151" transform="translate(-157.128 1.725)" fill="#20003f"/>
      <path id="Path_63" data-name="Path 63" d="M355.712,1.087A7.424,7.424,0,0,1,358.5,4.1a9.4,9.4,0,0,1,.994,4.381,1.058,1.058,0,0,1-.315.8,1.143,1.143,0,0,1-.82.3H345.618a6.2,6.2,0,0,0,6.434,5.8,7.022,7.022,0,0,0,2.287-.394,5.543,5.543,0,0,0,1.846-.993,1.38,1.38,0,0,1,.852-.315,1.182,1.182,0,0,1,.694.252,1.14,1.14,0,0,1,.41.851.954.954,0,0,1-.347.725,8.564,8.564,0,0,1-2.649,1.466,9.149,9.149,0,0,1-7.6-.536,7.989,7.989,0,0,1-3.108-3.12,9.1,9.1,0,0,1-1.12-4.523,9.609,9.609,0,0,1,1.057-4.555,7.782,7.782,0,0,1,2.934-3.12A8.183,8.183,0,0,1,351.579,0a7.827,7.827,0,0,1,4.132,1.087m-8.107,2.569a6.419,6.419,0,0,0-1.924,3.909h11.545a6.163,6.163,0,0,0-1.767-3.909,5.315,5.315,0,0,0-3.88-1.481,5.577,5.577,0,0,0-3.974,1.481" transform="translate(-188.497 1.725)" fill="#20003f"/>
      <path id="Union_3" data-name="Union 3" d="M-7594.248-5129.092l-.128-.064h0l-.024-.013-.348-.181-.02-.011-.007,0c-.827-.438-1.685-.931-2.566-1.474h0c-.2-.126-.407-.255-.612-.387s-.384-.247-.578-.374h0l-.128-.083-.6-.4c-.053-.038-.109-.075-.165-.112-.138-.093-.275-.189-.414-.285l-.41-.29,0,0q-.627-.445-1.259-.918c-.428-.319-.846-.643-1.254-.966h0l0,0-.384-.306h0l-.379-.309c-.027-.021-.053-.042-.079-.064q-.193-.16-.384-.316v0l-.169-.143c-.071-.06-.138-.118-.208-.177h0c-.17-.145-.337-.291-.5-.435-.189-.168-.378-.333-.562-.5h0c-.766-.686-1.476-1.368-2.126-2.034l-.167-.174-.166-.173h0l-.082-.085c-2.444-2.583-3.935-4.9-4.012-6.363,0-.058,0-.113,0-.166a1.777,1.777,0,0,1,.013-.18,1.331,1.331,0,0,1,.233-.627c.828-1.145,3.587-.641,7.174,1.068h0a9.559,9.559,0,0,1,11.94-.5,9.967,9.967,0,0,1,3.235,11.856c2.682,2.984,3.982,5.525,3.153,6.673a1.287,1.287,0,0,1-.519.413,1.659,1.659,0,0,1-.165.067c-.042.013-.084.027-.13.04a3.1,3.1,0,0,1-.811.1A16.071,16.071,0,0,1-7594.248-5129.092Zm2.094-1.457h0a5.811,5.811,0,0,0,2.238.351c.054-.006.108-.013.159-.023a1.829,1.829,0,0,0,.191-.046,1.043,1.043,0,0,0,.567-.377.952.952,0,0,0,.119-.228,1.094,1.094,0,0,0,.062-.3,1.883,1.883,0,0,0-.042-.534,5.817,5.817,0,0,0-.876-1.868,9.906,9.906,0,0,1-.566.955c-.049.074-.1.146-.148.218q-.145.2-.294.395a9.677,9.677,0,0,1-1.409,1.454Zm-3.982-1.819c.016.009.031.02.048.028l.316.175.047.026c.194.1.386.208.575.3.108.057.214.11.319.164a7.253,7.253,0,0,0,2.42-2.167,7.478,7.478,0,0,0-1.641-10.309,7.183,7.183,0,0,0-10.129,1.669,7.428,7.428,0,0,0-1.23,2.879h0c.088.091.175.184.264.278.144.15.29.3.441.45.04.041.082.081.122.12l.193.19c.034.032.069.067.1.1h0c0-.089.01-.179.018-.27a6.366,6.366,0,0,1,.33-1.529,6.047,6.047,0,0,1,7.763-3.749,6.211,6.211,0,0,1,3.681,7.9,6.123,6.123,0,0,1-3.4,3.636c-.083.035-.165.067-.248.1Zm-.229-4.215c-.781.378-.894,1.476-.3,2.936a.368.368,0,0,0,.2.2l.012.006a.358.358,0,0,0,.267-.009,5.072,5.072,0,0,0,2.262-2,.379.379,0,0,0-.043-.445,2.609,2.609,0,0,0-1.806-.809A1.359,1.359,0,0,0-7596.365-5136.583Zm-4.424,1.117.363.275c.454.339.9.662,1.352.974h0l.126.086c.311.214.618.418.923.616l.044.028c.015-.069.028-.139.039-.207a2.073,2.073,0,0,0-1-2.409,1.683,1.683,0,0,0-1.716.5c-.045.044-.09.089-.134.136Zm-2.121-1.73.291.251h0q.368.316.756.631l.166.136.079.064.013.009c.054-.039.106-.078.156-.118.81-.637,1.117-1.341.823-1.968a2.328,2.328,0,0,0-2.281-1.008.365.365,0,0,0-.311.316,5.247,5.247,0,0,0-.022,1.13c.008.1.019.2.033.3Q-7603.06-5137.326-7602.91-5137.2Zm3.331-1.475a1.48,1.48,0,0,0,.877,1.876,1.44,1.44,0,0,0,1.844-.891,1.479,1.479,0,0,0-.875-1.878,1.41,1.41,0,0,0-.483-.085A1.451,1.451,0,0,0-7599.579-5138.671Zm5.36-1.966c-1.366.75-1.961,1.671-1.589,2.467a1.884,1.884,0,0,0,1.084.868,2.548,2.548,0,0,0,1.2.14.366.366,0,0,0,.309-.314,5.2,5.2,0,0,0-.51-3.005.332.332,0,0,0-.214-.183.36.36,0,0,0-.109-.018A.343.343,0,0,0-7594.219-5140.637Zm-6.044-2.216a5.064,5.064,0,0,0-2.263,2,.374.374,0,0,0,.044.444,2.576,2.576,0,0,0,1.017.661,1.846,1.846,0,0,0,1.377.028c.784-.377.9-1.474.3-2.935a.358.358,0,0,0-.2-.2.294.294,0,0,0-.13-.028A.368.368,0,0,0-7600.263-5142.853Zm1.844-.172c-.351,1.279.043,2.479.92,2.8s1.928-.357,2.45-1.573a.372.372,0,0,0-.112-.438,5.016,5.016,0,0,0-2.9-1.051h-.014A.36.36,0,0,0-7598.419-5143.025Zm-8.722-2.368a1.808,1.808,0,0,0-.515.118,1.069,1.069,0,0,0-.269.155.86.86,0,0,0-.169.176,1.086,1.086,0,0,0-.186.665c0,.064.006.131.014.2s.019.121.031.184a6.125,6.125,0,0,0,.976,2.027h0a9.774,9.774,0,0,1,.93-1.776c.061-.093.122-.183.187-.272.083-.12.17-.236.259-.35a9.975,9.975,0,0,1,.729-.837h0a6.266,6.266,0,0,0-1.722-.3C-7606.967-5145.4-7607.056-5145.4-7607.141-5145.393Zm3.186,15.22a9.842,9.842,0,0,1-3.9-6.509q.9.872,1.917,1.764.648.569,1.345,1.139.875.717,1.815,1.428c.078.063.156.123.238.181.044.034.089.065.133.1.645.479,1.288.937,1.925,1.373q.74.505,1.467.968,1.107.7,2.169,1.3a9.571,9.571,0,0,1-1.461.112A9.516,9.516,0,0,1-7603.955-5130.172Z" transform="translate(7612 5147.999)" fill="#dc1864" stroke="rgba(0,0,0,0)" strokeWidth="1"/>
    </g>
  </g>
</svg>
