<svg xmlns="http://www.w3.org/2000/svg" xmlns:xlink="http://www.w3.org/1999/xlink" width="280" height="43" viewBox="0 0 280 43">
  <defs>
    <clipPath id="clip-path">
      <rect id="Rectangle_29" data-name="Rectangle 29" width="40.857" height="34.089" fill="#dc1864"/>
    </clipPath>
  </defs>
  <g id="Logo" transform="translate(31 2)">
    <g id="Group_16" data-name="Group 16" transform="translate(-31 -2)">
      <path id="Path_57" data-name="Path 57" d="M6.869,26.622a13.481,13.481,0,0,1-5.036-5.115A14.456,14.456,0,0,1,0,14.27a15.182,15.182,0,0,1,1.756-7.34A12.976,12.976,0,0,1,6.611,1.842,13.393,13.393,0,0,1,13.584,0a12.924,12.924,0,0,1,10.485,4.91,1.562,1.562,0,0,1,.413,1.074A1.745,1.745,0,0,1,23.6,7.417a1.75,1.75,0,0,1-.981.307,2.077,2.077,0,0,1-1.5-.767,10.552,10.552,0,0,0-3.409-2.532,9.885,9.885,0,0,0-4.132-.844A9.526,9.526,0,0,0,8.522,4.936a9.043,9.043,0,0,0-3.434,3.81A12.288,12.288,0,0,0,3.873,14.27a11.415,11.415,0,0,0,1.292,5.447,9.554,9.554,0,0,0,3.615,3.81,10.213,10.213,0,0,0,5.32,1.381,9.8,9.8,0,0,0,6.663-2.2,2.15,2.15,0,0,1,1.394-.562,1.908,1.908,0,0,1,1.859,1.79,1.452,1.452,0,0,1-.517,1.125,13.333,13.333,0,0,1-9.4,3.427,14.087,14.087,0,0,1-7.231-1.867" transform="translate(49.569 2.799)" fill="#20003f"/>
      <path id="Path_58" data-name="Path 58" d="M69.239,1.867A13.669,13.669,0,0,1,74.4,7.007a14.3,14.3,0,0,1,1.885,7.263V26.288a1.866,1.866,0,0,1-.568,1.381,1.97,1.97,0,0,1-1.446.562,2.022,2.022,0,0,1-1.447-.537,1.845,1.845,0,0,1-.567-1.407V23.22a12.765,12.765,0,0,1-4.6,3.861,13.447,13.447,0,0,1-6.146,1.406,13.748,13.748,0,0,1-7.1-1.866,13.54,13.54,0,0,1-5.01-5.115,14.459,14.459,0,0,1-1.834-7.237,14.287,14.287,0,0,1,1.885-7.263,13.652,13.652,0,0,1,5.165-5.14,15.238,15.238,0,0,1,14.617,0M67.25,23.527A10.007,10.007,0,0,0,71,19.716a10.9,10.9,0,0,0,1.368-5.447A10.911,10.911,0,0,0,71,8.822,10.2,10.2,0,0,0,61.93,3.58a10.383,10.383,0,0,0-5.346,1.406,10.136,10.136,0,0,0-3.77,3.836,10.9,10.9,0,0,0-1.369,5.447,10.892,10.892,0,0,0,1.369,5.447,9.937,9.937,0,0,0,3.77,3.811,10.535,10.535,0,0,0,5.346,1.381,10.4,10.4,0,0,0,5.32-1.381" transform="translate(30.708 2.8)" fill="#20003f"/>
      <path id="Path_1706" data-name="Path 1706" d="M69.239,1.867A13.669,13.669,0,0,1,74.4,7.007a14.3,14.3,0,0,1,1.885,7.263V26.288a1.866,1.866,0,0,1-.568,1.381,1.97,1.97,0,0,1-1.446.562,2.022,2.022,0,0,1-1.447-.537,1.845,1.845,0,0,1-.567-1.407V23.22a12.765,12.765,0,0,1-4.6,3.861,13.447,13.447,0,0,1-6.146,1.406,13.748,13.748,0,0,1-7.1-1.866,13.54,13.54,0,0,1-5.01-5.115,14.459,14.459,0,0,1-1.834-7.237,14.287,14.287,0,0,1,1.885-7.263,13.652,13.652,0,0,1,5.165-5.14,15.238,15.238,0,0,1,14.617,0M67.25,23.527A10.007,10.007,0,0,0,71,19.716a10.9,10.9,0,0,0,1.368-5.447A10.911,10.911,0,0,0,71,8.822,10.2,10.2,0,0,0,61.93,3.58a10.383,10.383,0,0,0-5.346,1.406,10.136,10.136,0,0,0-3.77,3.836,10.9,10.9,0,0,0-1.369,5.447,10.892,10.892,0,0,0,1.369,5.447,9.937,9.937,0,0,0,3.77,3.811,10.535,10.535,0,0,0,5.346,1.381,10.4,10.4,0,0,0,5.32-1.381" transform="translate(145.049 2.8)" fill="#20003f"/>
      <path id="Path_59" data-name="Path 59" d="M119.774.562a1.759,1.759,0,0,1,1.266,1.586,1.556,1.556,0,0,1-.052.46,1.557,1.557,0,0,1-.646.972,2.414,2.414,0,0,1-1.214.256q-.464,0-1.6-.1a11.147,11.147,0,0,0-1.24-.051,9.551,9.551,0,0,0-6.327,2.046,6.6,6.6,0,0,0-2.453,5.32V26.339a1.927,1.927,0,0,1-.517,1.433,2.3,2.3,0,0,1-2.892,0,1.925,1.925,0,0,1-.517-1.433V2.25A1.924,1.924,0,0,1,104.1.818a2.3,2.3,0,0,1,2.892,0,1.926,1.926,0,0,1,.517,1.432V4.5a10.218,10.218,0,0,1,3.822-3.325A10.938,10.938,0,0,1,116.34,0a8.622,8.622,0,0,1,3.435.562" transform="translate(8.502 2.8)" fill="#20003f"/>
      <path id="Path_60" data-name="Path 60" d="M141.606,27.414a11.93,11.93,0,0,1-4.752-3.017,1.862,1.862,0,0,1-.517-1.176,1.939,1.939,0,0,1,.826-1.535,2.14,2.14,0,0,1,1.292-.46,1.916,1.916,0,0,1,1.5.716,7.917,7.917,0,0,0,3.28,2.2,12.745,12.745,0,0,0,4.519.767,9.723,9.723,0,0,0,5.423-1.228,3.87,3.87,0,0,0,1.859-3.222,3.618,3.618,0,0,0-1.808-3.068,14.532,14.532,0,0,0-5.733-1.841q-5.062-.818-7.566-2.839a6.081,6.081,0,0,1-2.505-4.884,6.648,6.648,0,0,1,2.918-5.78A12.43,12.43,0,0,1,147.649,0a14.234,14.234,0,0,1,5.939,1.151,10.422,10.422,0,0,1,4.081,3.2,2.311,2.311,0,0,1,.413,1.177,1.56,1.56,0,0,1-.826,1.381,1.668,1.668,0,0,1-.981.256,2.38,2.38,0,0,1-1.808-.767,8.765,8.765,0,0,0-6.921-2.864A7.994,7.994,0,0,0,143,4.68a3.4,3.4,0,0,0-.1,5.83,14.964,14.964,0,0,0,5.682,1.765q5.526.921,7.9,2.992a6.549,6.549,0,0,1,2.376,5.14,6.685,6.685,0,0,1-1.42,4.194,9.215,9.215,0,0,1-3.951,2.864,15.179,15.179,0,0,1-5.733,1.023,17.793,17.793,0,0,1-6.146-1.074" transform="translate(-4.484 2.8)" fill="#20003f"/>
      <path id="Path_61" data-name="Path 61" d="M203.213,1.867a13.665,13.665,0,0,1,5.165,5.14,14.293,14.293,0,0,1,1.885,7.263,14.464,14.464,0,0,1-1.834,7.237,13.545,13.545,0,0,1-5.01,5.115,13.751,13.751,0,0,1-7.1,1.866,13.445,13.445,0,0,1-6.146-1.406,12.748,12.748,0,0,1-4.6-3.861V38.205a1.932,1.932,0,0,1-.568,1.432,1.973,1.973,0,0,1-1.446.563,1.885,1.885,0,0,1-1.421-.563,1.98,1.98,0,0,1-.543-1.432V26.749a1.536,1.536,0,0,1-.051-.46V14.269a14.281,14.281,0,0,1,1.885-7.263,13.651,13.651,0,0,1,5.164-5.14,15.238,15.238,0,0,1,14.617,0m-1.963,21.66a9.941,9.941,0,0,0,3.77-3.811,10.9,10.9,0,0,0,1.369-5.447,10.911,10.911,0,0,0-1.369-5.447,10.14,10.14,0,0,0-3.77-3.836A10.381,10.381,0,0,0,195.9,3.58a10.2,10.2,0,0,0-9.065,5.242,10.9,10.9,0,0,0-1.369,5.447,11.327,11.327,0,0,0,.051,1.279.567.567,0,0,1,.052.256,10.231,10.231,0,0,0,3.383,6.547,10.069,10.069,0,0,0,6.947,2.557,10.533,10.533,0,0,0,5.346-1.381" transform="translate(-22.408 2.8)" fill="#20003f"/>
      <path id="Path_62" data-name="Path 62" d="M302.084,26.622a13.481,13.481,0,0,1-5.036-5.115,14.457,14.457,0,0,1-1.834-7.237,15.183,15.183,0,0,1,1.756-7.34,12.976,12.976,0,0,1,4.855-5.089A13.393,13.393,0,0,1,308.8,0a12.925,12.925,0,0,1,10.485,4.91,1.562,1.562,0,0,1,.413,1.074,1.745,1.745,0,0,1-.878,1.432,1.749,1.749,0,0,1-.981.307,2.077,2.077,0,0,1-1.5-.767,10.552,10.552,0,0,0-3.409-2.532,9.885,9.885,0,0,0-4.132-.844,9.526,9.526,0,0,0-5.062,1.355,9.043,9.043,0,0,0-3.434,3.81,12.288,12.288,0,0,0-1.214,5.524,11.416,11.416,0,0,0,1.292,5.447A9.555,9.555,0,0,0,304,23.527a10.214,10.214,0,0,0,5.32,1.381,9.794,9.794,0,0,0,6.663-2.2,2.15,2.15,0,0,1,1.394-.562,1.908,1.908,0,0,1,1.859,1.79,1.452,1.452,0,0,1-.517,1.125,13.334,13.334,0,0,1-9.4,3.427,14.087,14.087,0,0,1-7.231-1.867" transform="translate(-69.108 2.799)" fill="#20003f"/>
      <path id="Path_63" data-name="Path 63" d="M363.614,1.764a12.09,12.09,0,0,1,4.571,4.885,15.142,15.142,0,0,1,1.627,7.109,1.708,1.708,0,0,1-.516,1.3,1.881,1.881,0,0,1-1.343.486H347.086a10.145,10.145,0,0,0,3.3,6.8,10.394,10.394,0,0,0,7.231,2.608,11.593,11.593,0,0,0,3.744-.639,9.1,9.1,0,0,0,3.022-1.611,2.272,2.272,0,0,1,1.395-.512,1.946,1.946,0,0,1,1.136.409,1.843,1.843,0,0,1,.671,1.381,1.543,1.543,0,0,1-.569,1.176,14.06,14.06,0,0,1-4.338,2.379,15.1,15.1,0,0,1-12.447-.87,13.022,13.022,0,0,1-5.088-5.063,14.668,14.668,0,0,1-1.834-7.34,15.477,15.477,0,0,1,1.73-7.39,12.675,12.675,0,0,1,4.8-5.063,13.493,13.493,0,0,1,7-1.816,12.907,12.907,0,0,1,6.766,1.764M350.34,5.933a10.381,10.381,0,0,0-3.15,6.342h18.9A9.96,9.96,0,0,0,363.2,5.933a8.747,8.747,0,0,0-6.353-2.4,9.18,9.18,0,0,0-6.508,2.4" transform="translate(-89.812 2.8)" fill="#20003f"/>
      <g id="Group_17" data-name="Group 17" transform="translate(0)">
        <g id="Group_16-2" data-name="Group 16" clip-path="url(#clip-path)">
          <path id="Path_98" data-name="Path 98" d="M30.238.758A15.643,15.643,0,0,0,10.89,9.835c-.11.278-.211.56-.306.847-.013.04-.026.081-.038.121a15.383,15.383,0,0,0-.66,3.182c.072.08.144.156.217.235,1.011,1.083,2.116,2.193,3.307,3.315l.33.309.006.006a1.414,1.414,0,0,1,1.235-1.031l.78-.073,1.1-.106,4.933-.467A3.661,3.661,0,0,0,22.67,17.9l-1.9,2.131-.551.619-1.407,1.576.014.012q.361.291.728.577c.006.006.014.01.021.018q.468.366.935.723l1.152-1.779.45-.693,1.557-2.4a3.766,3.766,0,0,0,.613.257,3.724,3.724,0,0,0,.648.148L24.7,22.973l-.055.951L24.5,26.446l.024.016.187.127c.14.1.282.191.423.285q.483.328.963.64c1.386.9,2.741,1.725,4.046,2.457l.207.116.022.013a15.7,15.7,0,0,0,3.061-1.4q.4-.238.794-.5a15.481,15.481,0,0,0,3.827-3.683q.265-.362.509-.741c.064-.1.127-.2.188-.3q.231-.377.442-.77a15.565,15.565,0,0,0,1.063-2.487A15.384,15.384,0,0,0,30.238.758M21.906,14.321a3.548,3.548,0,0,0-.137.56l-7.088-.4-.558-.032a.706.706,0,0,1-.662-.81c.022-.135.045-.27.072-.4a11.7,11.7,0,0,1,.381-1.478,11.819,11.819,0,0,1,.8-1.883A.715.715,0,0,1,15.73,9.6L22.176,13.7a3.738,3.738,0,0,0-.27.623m1.065-1.61L17.842,8.225a1.4,1.4,0,0,1,.061-2.16A12.23,12.23,0,0,1,22.227,3.9a1.421,1.421,0,0,1,1.8,1.221l.654,6.749a3.721,3.721,0,0,0-1.705.846M34.75,7.823a12,12,0,0,1,2.3,4.329,1.408,1.408,0,0,1-1.228,1.792l-6.809.649a3.651,3.651,0,0,0-.971-1.723l4.539-5.091a1.432,1.432,0,0,1,2.167.044M26.381,4.255A.709.709,0,0,1,27.2,3.6a12.3,12.3,0,0,1,3.821,1.228.7.7,0,0,1,.27,1l-4.135,6.384a3.712,3.712,0,0,0-1.21-.389Zm2.1,22.786A1.422,1.422,0,0,1,26.7,25.818l-.058-.592-.1-1.022-.5-5.144a3.73,3.73,0,0,0,1.832-.872l5.131,4.484a1.4,1.4,0,0,1-.064,2.161,12.165,12.165,0,0,1-2.65,1.581q-.478.209-.975.376-.413.139-.836.25m8.92-9.922a11.952,11.952,0,0,1-.475,2.03,12.22,12.22,0,0,1-.769,1.823.715.715,0,0,1-1.015.269l-6.446-4.1a3.527,3.527,0,0,0,.24-.565,3.64,3.64,0,0,0,.154-.7l7.648.434a.707.707,0,0,1,.663.8M24.524,27.445c-.119-.081-.239-.161-.358-.242a.712.712,0,0,1-.488.1A12.323,12.323,0,0,1,19.8,26.062a.7.7,0,0,1-.27-1l.526-.813c-.051-.037-.1-.076-.15-.114q-.473-.362-.947-.732a.142.142,0,0,0-.022-.018q-.342-.269-.68-.541l-.122.136a1.43,1.43,0,0,1-2.18-.059,11.986,11.986,0,0,1-2.048-3.785c-.014-.012-.03-.026-.044-.039l-.19-.174-.312-.286-.238-.221c-.11-.1-.221-.205-.328-.307-1.065-1-2.063-2-2.984-2.971a15.43,15.43,0,0,0,10.791,15.01,15.669,15.669,0,0,0,8.7.27c-1.235-.7-2.513-1.481-3.82-2.329-.319-.211-.642-.423-.964-.64" transform="translate(-3.372 0)" fill="#dc1864"/>
          <path id="Path_99" data-name="Path 99" d="M40.406,33.718a1.875,1.875,0,0,1-.257.263,2.031,2.031,0,0,1-.218.16l-.051.03a2.545,2.545,0,0,1-.332.166c-.087.034-.177.065-.27.092-.07.021-.139.04-.213.057-2.258.51-6.445-.83-11.457-3.548-.067-.038-.135-.073-.2-.112s-.135-.073-.2-.11L27,30.6l-.023-.013c-.068-.038-.137-.077-.206-.115-1.3-.733-2.659-1.557-4.046-2.458q-.48-.314-.964-.64c-.14-.094-.282-.188-.422-.285l-.187-.127-.024-.016-.28-.191q-.694-.48-1.394-.982-.648-.465-1.3-.951-.5-.373-1.006-.76l-.014-.01q-.466-.357-.934-.723c-.007-.007-.015-.012-.022-.018q-.366-.287-.727-.577l-.014-.012q-.621-.5-1.222-1h0c-.408-.337-.807-.675-1.2-1.014q-.669-.573-1.311-1.148-.3-.269-.6-.539c-.064-.058-.127-.115-.19-.174-.1-.1-.207-.191-.311-.285-.076-.071-.154-.145-.231-.215l-.006-.006-.33-.309c-1.191-1.122-2.3-2.232-3.307-3.315-.074-.079-.145-.155-.217-.235l-.007-.008-.028-.03q-.133-.144-.263-.289c-.045-.046-.085-.092-.127-.138C2.751,10.33.6,7.006.106,4.7.1,4.641.085,4.588.075,4.535A4.354,4.354,0,0,1,0,3.824c0-.089,0-.176,0-.26a2.753,2.753,0,0,1,.032-.281,2.082,2.082,0,0,1,.33-.854A1.142,1.142,0,0,1,.45,2.315C1.833.589,6.165,1.5,11.748,4.309l-.919.862h0A8.876,8.876,0,0,0,7.8,4.654a2.967,2.967,0,0,0-.834.153,1.788,1.788,0,0,0-.443.229.055.055,0,0,0-.012.01,1.468,1.468,0,0,0-.242.22L6.238,5.3a1.292,1.292,0,0,0-.119.174,1.758,1.758,0,0,0-.218.853c0,.1,0,.207.011.315s.022.191.04.289a4.478,4.478,0,0,0,.125.53c.014.049.029.1.045.146a11.518,11.518,0,0,0,1.284,2.557l.022.032.065.1.026.039.052.077c.031.048.064.1.1.147A31.125,31.125,0,0,0,10.129,13.7c.011.013.023.025.034.038l.083.095.174.194c.078.086.158.172.236.26.213.231.429.463.654.7l.031.032.017.018c.154.163.31.324.471.487q.331.339.679.679c.2.2.4.392.605.588.125.12.251.24.379.359a.326.326,0,0,0,.031.029c.2.188.4.376.61.565.149.135.3.273.454.409.225.2.455.4.688.608.163.142.328.285.494.426l.26.222q.667.564,1.368,1.127h0c.2.164.41.329.618.493l.275.213c.148.117.3.231.447.345q.7.538,1.4,1.045c.067.049.133.1.2.145.331.241.664.476.993.7l.006,0,.45.309.413.281.01.006q.483.326.962.632l.016.01.019.013q.352.226.7.444.47.292.931.567c.192.115.381.227.572.337.306.175.609.348.909.513.169.092.337.184.5.273l.077.04a.237.237,0,0,0,.026.013,31.8,31.8,0,0,0,3.734,1.711l.171.064.03.011.135.047a.7.7,0,0,0,.074.025h0a9.591,9.591,0,0,0,3.584.68c.089-.006.174-.014.258-.026a3.119,3.119,0,0,0,.31-.06,1.944,1.944,0,0,0,.244-.077,1.648,1.648,0,0,0,.165-.07.327.327,0,0,0,.033-.018,1.477,1.477,0,0,0,.493-.392,1.445,1.445,0,0,0,.2-.35A1.735,1.735,0,0,0,36.478,28a2.418,2.418,0,0,0,.014-.272,2.888,2.888,0,0,0-.026-.383c-.006-.061-.016-.122-.026-.185a8.733,8.733,0,0,0-1.217-2.836.45.45,0,0,0-.028-.047c-.007-.011-.012-.02-.018-.031.062-.1.125-.2.184-.294.154-.252.3-.509.44-.771l.024.027a.23.23,0,0,0,.023.027C39.9,28,41.792,31.991,40.406,33.718" transform="translate(0 -0.504)" fill="#dc1864"/>
        </g>
      </g>
    </g>
  </g>
</svg>
