<svg id="mercedes-benz-9" xmlns="http://www.w3.org/2000/svg" xmlns:xlink="http://www.w3.org/1999/xlink" width="61" height="61" viewBox="0 0 61 61">
  <defs>
    <linearGradient id="linear-gradient" x1="0.117" y1="0.853" x2="0.883" y2="0.211" gradientUnits="objectBoundingBox">
      <stop offset="0" stopColor="#fff"/>
      <stop offset="0.1" stopColor="#e7e8e6"/>
      <stop offset="0.1" stopColor="#cdd0d0"/>
      <stop offset="0.2" stopColor="#b5bbbd"/>
      <stop offset="0.2" stopColor="#a5acaf"/>
      <stop offset="0.3" stopColor="#9ba3a7"/>
      <stop offset="0.3" stopColor="#98a0a4"/>
      <stop offset="0.4" stopColor="#828a8f"/>
      <stop offset="0.5" stopColor="#667075"/>
      <stop offset="0.6" stopColor="#535c63"/>
      <stop offset="0.7" stopColor="#475158"/>
      <stop offset="0.8" stopColor="#434d54"/>
      <stop offset="1" stopColor="#475157"/>
    </linearGradient>
    <linearGradient id="linear-gradient-2" x1="0.117" y1="0.856" x2="0.882" y2="0.213" gradientUnits="objectBoundingBox">
      <stop offset="0" stopColor="#0b1f2a"/>
      <stop offset="0.2" stopColor="#333f47"/>
      <stop offset="0.5" stopColor="#777f84"/>
      <stop offset="0.5" stopColor="#81898d"/>
      <stop offset="0.7" stopColor="#b3b8b8"/>
      <stop offset="0.8" stopColor="#d2d5d3"/>
      <stop offset="0.8" stopColor="#dee0dd"/>
      <stop offset="1" stopColor="#fbfbfb"/>
    </linearGradient>
    <linearGradient id="linear-gradient-3" x1="25.762" y1="-2.515" x2="26.104" y2="-3.455" gradientUnits="objectBoundingBox">
      <stop offset="0" stopColor="#e1e3e1"/>
      <stop offset="0.1" stopColor="#c1c5c4"/>
      <stop offset="0.3" stopColor="#9ba1a2"/>
      <stop offset="0.5" stopColor="#7d8487"/>
      <stop offset="0.7" stopColor="#687074" stopOpacity="0"/>
      <stop offset="0.8" stopColor="#5b6469" stopOpacity="0"/>
      <stop offset="1" stopColor="#576065" stopOpacity="0"/>
    </linearGradient>
    <linearGradient id="linear-gradient-4" x1="0.25" y1="0.969" x2="0.75" y2="0.103" xlink:href="#linear-gradient-3"/>
    <linearGradient id="linear-gradient-5" x1="0.504" y1="-0.43" x2="0.434" y2="-0.63" gradientUnits="objectBoundingBox">
      <stop offset="0" stopColor="#27343c"/>
      <stop offset="1" stopColor="#00111e" stopOpacity="0"/>
    </linearGradient>
    <linearGradient id="linear-gradient-6" x1="1.71" y1="1.199" x2="1.043" y2="1.365" gradientUnits="objectBoundingBox">
      <stop offset="0.1" stopColor="#02131f"/>
      <stop offset="0.9" stopColor="#02131f" stopOpacity="0"/>
    </linearGradient>
    <linearGradient id="linear-gradient-7" x1="1.003" y1="-0.212" x2="0.833" y2="-0.297" gradientUnits="objectBoundingBox">
      <stop offset="0.2" stopColor="#02131f" stopOpacity="0.8"/>
      <stop offset="0.9" stopColor="#02131f" stopOpacity="0"/>
    </linearGradient>
    <linearGradient id="linear-gradient-8" x1="0.531" y1="-0.649" x2="0.506" y2="-0.54" gradientUnits="objectBoundingBox">
      <stop offset="0" stopColor="#02131f"/>
      <stop offset="0.1" stopColor="#02131f"/>
      <stop offset="1" stopColor="#02131f" stopOpacity="0"/>
    </linearGradient>
    <linearGradient id="linear-gradient-9" x1="0.788" y1="1.62" x2="0.064" y2="1.606" gradientUnits="objectBoundingBox">
      <stop offset="0.3" stopColor="#02131f"/>
      <stop offset="0.8" stopColor="#02131f" stopOpacity="0"/>
    </linearGradient>
    <linearGradient id="linear-gradient-10" x1="0.81" y1="1.622" x2="0.321" y2="1.611" gradientUnits="objectBoundingBox">
      <stop offset="0.4" stopColor="#27343c"/>
      <stop offset="1" stopColor="#3b474e" stopOpacity="0"/>
    </linearGradient>
    <linearGradient id="linear-gradient-11" x1="-0.048" y1="0.327" x2="1.204" y2="-0.073" gradientUnits="objectBoundingBox">
      <stop offset="0" stopColor="#24303a" stopOpacity="0"/>
      <stop offset="0" stopColor="#25323b" stopOpacity="0"/>
      <stop offset="0.1" stopColor="#27343c"/>
    </linearGradient>
    <linearGradient id="linear-gradient-12" x1="0.5" y1="-0.835" x2="0.5" y2="0.177" gradientUnits="objectBoundingBox">
      <stop offset="0.3" stopColor="#a5abaf"/>
      <stop offset="1" stopColor="#a5abaf" stopOpacity="0"/>
    </linearGradient>
    <linearGradient id="linear-gradient-13" x1="0.5" y1="1.007" x2="0.5" y2="0.007" gradientUnits="objectBoundingBox">
      <stop offset="0" stopColor="#dee0dd"/>
      <stop offset="0" stopColor="#c5c9c7"/>
      <stop offset="0" stopColor="#9ea4a5"/>
      <stop offset="0" stopColor="#82898c"/>
      <stop offset="0" stopColor="#71797d"/>
      <stop offset="0" stopColor="#6b7378"/>
      <stop offset="0.2" stopColor="#333f47"/>
      <stop offset="0.5" stopColor="#27343c"/>
      <stop offset="0.8" stopColor="#333f47"/>
      <stop offset="1" stopColor="#434d54"/>
    </linearGradient>
    <linearGradient id="linear-gradient-14" x1="0.845" y1="1.34" x2="0.333" y2="0.856" gradientUnits="objectBoundingBox">
      <stop offset="0.7" stopColor="#27343c"/>
      <stop offset="0.7" stopColor="#2b373f"/>
      <stop offset="0.7" stopColor="#36424a"/>
      <stop offset="0.7" stopColor="#49545b"/>
      <stop offset="0.8" stopColor="#646d73" stopOpacity="0"/>
      <stop offset="0.8" stopColor="#868d92" stopOpacity="0"/>
      <stop offset="0.8" stopColor="#b0b5b8" stopOpacity="0"/>
      <stop offset="0.8" stopColor="#e1e3e4" stopOpacity="0"/>
      <stop offset="0.8" stopColor="#fff" stopOpacity="0"/>
    </linearGradient>
  </defs>
  <path id="outer_24_" d="M60.35,30.525A29.825,29.825,0,1,1,30.525.7,29.808,29.808,0,0,1,60.35,30.525ZM30.525,2.51A28.014,28.014,0,1,0,58.539,30.525,27.938,27.938,0,0,0,30.525,2.51Z" transform="translate(-0.025 -0.025)" fill="url(#linear-gradient)"/>
  <path id="Path_109" data-name="Path 109" d="M30.592,2.6A27.992,27.992,0,1,0,58.585,30.592,27.916,27.916,0,0,0,30.592,2.6Zm0,54.176A26.183,26.183,0,1,1,56.776,30.592,26.168,26.168,0,0,1,30.592,56.776Z" transform="translate(-0.092 -0.092)" fill="url(#linear-gradient-2)"/>
  <path id="Path_110" data-name="Path 110" d="M30.5,60.333A29.833,29.833,0,1,0,.667,30.5,29.816,29.816,0,0,0,30.5,60.333ZM30.5,0A30.5,30.5,0,1,1,0,30.5,30.59,30.59,0,0,1,30.5,0Z" opacity="0.4" fill="url(#linear-gradient-3)"/>
  <path id="Path_111" data-name="Path 111" d="M2.2,30.673A28.378,28.378,0,1,1,30.578,58.956,28.469,28.469,0,0,1,2.2,30.673Zm8.856-19.617a27.589,27.589,0,0,0-.1,39.139A28.043,28.043,0,0,0,30.578,58.29,27.636,27.636,0,0,0,58.194,30.673,28.043,28.043,0,0,0,50.1,11.056a27.362,27.362,0,0,0-39.044,0Z" transform="translate(-0.078 -0.078)" fill="#fff"/>
  <path id="Path_112" data-name="Path 112" d="M30.656,56.912A26.234,26.234,0,0,1,12.106,12.106a26.234,26.234,0,1,1,37.1,37.1A26.048,26.048,0,0,1,30.656,56.912Zm0-.761a25.4,25.4,0,1,0-17.98-43.38A24.733,24.733,0,0,0,5.161,30.656a25.5,25.5,0,0,0,25.5,25.5Z" transform="translate(-0.156 -0.156)" opacity="0.4" fill="url(#linear-gradient-4)"/>
  <path id="Path_113" data-name="Path 113" d="M53.837,43.53c-.475-.386-18.8-15.143-18.8-15.143L30.758,3.6a1.63,1.63,0,0,0-.855.772L26.864,28.484,7.965,43.241s-.38.482-.57.772a1.907,1.907,0,0,0-.095.772l23.363-9.741,23.363,9.741a1.394,1.394,0,0,0-.19-1.254Z" transform="translate(-0.259 -0.128)" fill="#fff"/>
  <path id="Path_114" data-name="Path 114" d="M32.193,32.795,32,37.232l21.8,8.777a1.737,1.737,0,0,0,1.929-.193L32.482,32.7A.185.185,0,0,0,32.193,32.795Z" transform="translate(-1.864 -1.635)" fill="#565f64"/>
  <path id="Path_115" data-name="Path 115" d="M32.2,32.795a23.038,23.038,0,0,0,2.7,3.762,22.277,22.277,0,0,0,4.726,3.762L53.8,46.009a1.737,1.737,0,0,0,1.929-.193L32.489,32.7A.185.185,0,0,0,32.2,32.795Z" transform="translate(-1.871 -1.635)" fill="url(#linear-gradient-5)"/>
  <path id="Path_116" data-name="Path 116" d="M55.662,44.85c0-.1-.1-.193-.193-.386L35.6,29.9l-2.7,1.736s.193.1.289,0a2.414,2.414,0,0,1,1.447,0c.482.193,21.026,13.31,21.026,13.214h0Z" transform="translate(-1.896 -1.511)" fill="rgba(164,170,174,0.6)"/>
  <path id="Path_117" data-name="Path 117" d="M55.086,43.96,36.568,29.3l-.868.579,19.869,14.66A2.557,2.557,0,0,0,55.086,43.96Z" transform="translate(-1.995 -1.483)" fill="#333e46"/>
  <path id="Path_118" data-name="Path 118" d="M32.479,30.32l-.1.1s0,.193.193.1c.1-.1,2.894-1.543,3.858-2.122L33.057,5.243A1.68,1.68,0,0,0,31.9,3.7l.386,26.813.193-.193Z" transform="translate(-1.524 -0.131)" fill="#565f64"/>
  <path id="Path_119" data-name="Path 119" d="M29.969,5.261V6.515L27.847,27.83a.877.877,0,0,0,.386.772l1.254.965.868-23.534.1-1.833a1.568,1.568,0,0,0-.482,1.061ZM28.812,29.952l-1.157-.964L8.075,43.166s-.579.386-.675.772l.675-.386L28.619,30.627c.386-.193.482-.386.193-.675Z" transform="translate(-0.263 -0.149)" fill="rgba(164,170,174,0.6)"/>
  <path id="Path_120" data-name="Path 120" d="M30.834,32.795c0-.1-.1-.193-.193-.1L7.3,45.912a1.939,1.939,0,0,0,1.929.193l21.8-8.777Z" transform="translate(-0.259 -1.636)" fill="#565f64"/>
  <path id="Path_121" data-name="Path 121" d="M32.4,30.442l.1-.1-.1.1a.094.094,0,0,0,.1.1h.1c.1-.1,2.894-1.543,3.858-2.122l-.386-2.8L33.075,5.268a1.179,1.179,0,0,0-.289-.868S34.233,23.883,34.233,26A6.3,6.3,0,0,1,32.4,30.442Z" transform="translate(-1.545 -0.156)" fill="url(#linear-gradient-6)"/>
  <path id="Path_122" data-name="Path 122" d="M30.834,32.795c0-.1-.1-.193-.193-.1L7.3,45.912a1.939,1.939,0,0,0,1.929.193l21.8-8.777Z" transform="translate(-0.259 -1.636)" fill="url(#linear-gradient-7)"/>
  <path id="Path_123" data-name="Path 123" d="M9.261,46.021l21.8-8.777L30.866,33a5.524,5.524,0,0,1-2.894,3.376c-1.35.772-14.275,7.137-18.9,9.356a6.09,6.09,0,0,1-.868.386,1.056,1.056,0,0,0,1.061-.1Z" transform="translate(-0.291 -1.649)" opacity="0.8" fill="url(#linear-gradient-8)"/>
  <path id="Path_124" data-name="Path 124" d="M32.479,30.32l-.1.1s0,.193.193.1c.1-.1,2.894-1.543,3.858-2.122L33.057,5.243A1.68,1.68,0,0,0,31.9,3.7l.386,26.813.193-.193Z" transform="translate(-1.524 -0.131)" fill="url(#linear-gradient-9)"/>
  <path id="Path_125" data-name="Path 125" d="M32.479,30.32l-.1.1s0,.193.193.1c.1-.1,2.894-1.543,3.858-2.122L33.057,5.243A1.68,1.68,0,0,0,31.9,3.7l.386,26.813.193-.193Z" transform="translate(-1.524 -0.131)" fill="url(#linear-gradient-10)"/>
  <path id="Path_126" data-name="Path 126" d="M4.944,43.534C4.269,41.991.411,34.468,4.654,20H3.015a47.727,47.727,0,0,0-1.929,7.234S.893,28.2.8,29.259a21.941,21.941,0,0,0-.1,2.315,25.252,25.252,0,0,0,1.447,9.163,28.157,28.157,0,0,0,7.909,12.442,27.666,27.666,0,0,0,12.153,5.691C21.533,58.773,9.959,53.854,4.944,43.534Z" transform="translate(-0.025 -1.438)" fill="url(#linear-gradient-11)"/>
  <path id="Path_127" data-name="Path 127" d="M32.368,32.6H31.5c.1,0,.193,0,.193.1l.193,4.437h.1l.193-4.437c0-.1.1-.193.193-.1Z" transform="translate(-1.482 -1.556)" fill="url(#linear-gradient-12)"/>
  <path id="Path_128" data-name="Path 128" d="M41.645,2.3C51.772,6.11,61.321,16.588,61.321,29.829A29.086,29.086,0,0,1,32,58.882v1.524c16.4,0,30.189-13.336,30.189-29.815A29.86,29.86,0,0,0,41.645,2.3Z" transform="translate(-1.864 -0.082)" fill="url(#linear-gradient-13)"/>
  <path id="Path_129" data-name="Path 129" d="M32.289.7h0Z" transform="translate(-1.502 -0.025)" fill="#fff"/>
  <path id="Path_130" data-name="Path 130" d="M57.955,19.593C51.2,4.065,35.965,3.2,35.1,3.1H35c11.67,2.122,19.1,9.741,21.7,17.747v.1a30.28,30.28,0,0,1,1.833,9.934,26.374,26.374,0,0,1-2.122,10.61c-.1.482-.193,1.061-.289,1.061h1.543C62.3,33.868,60.27,25.091,57.955,19.593Z" transform="translate(-1.971 -0.11)" fill="url(#linear-gradient-14)"/>
  <path id="Path_131" data-name="Path 131" d="M2.2,30.673A28.378,28.378,0,1,1,30.578,58.956,28.469,28.469,0,0,1,2.2,30.673Zm8.856-19.617a27.589,27.589,0,0,0-.1,39.139A28.043,28.043,0,0,0,30.578,58.29,27.636,27.636,0,0,0,58.194,30.673,28.043,28.043,0,0,0,50.1,11.056a27.362,27.362,0,0,0-39.044,0Z" transform="translate(-0.078 -0.078)" fill="#fbfbfb"/>
  <path id="Path_132" data-name="Path 132" d="M7.9,43.366,27.576,29.188a19.956,19.956,0,0,0,2.99,1.35c.193.1.193-.1.193-.1l-2.411-2.025a.877.877,0,0,1-.386-.772L30.276,4.4c-.1.1-.1.289-.193.386a.87.87,0,0,0-.1.482L26.611,28.513,8.093,43.077C8,43.173,7.9,43.269,7.9,43.366Z" transform="translate(-0.28 -0.156)" fill="#333f47"/>
</svg>
