<svg xmlns="http://www.w3.org/2000/svg" width="20" height="20.001" viewBox="0 0 20 20.001">
  <g id="Sakartvelo" transform="translate(-186 -342)">
    <circle id="Ellipse_38" data-name="Ellipse 38" cx="10" cy="10" r="10" transform="translate(186 342)" fill="#fff"/>
    <path id="Intersection_1" data-name="Intersection 1" d="M10443.053,7220.592v-8.161h-7.92a10.122,10.122,0,0,1,0-3.3h7.921v-8.164a10.1,10.1,0,0,1,3.89,0v8.163h7.918a10.122,10.122,0,0,1,0,3.3h-7.917v8.161a10.09,10.09,0,0,1-3.89,0Zm8.267-3.453a4.458,4.458,0,0,0-.51.034,8.314,8.314,0,0,0,.137-1.07,8.919,8.919,0,0,0-1.07.136,3.808,3.808,0,0,0,0-1.018.682.682,0,1,0,.934-.934s.342.034.51.034.509-.034.509-.034a8.975,8.975,0,0,0-.137,1.071,8.251,8.251,0,0,0,1.071-.137s-.034.341-.034.509.034.509.034.509a8.847,8.847,0,0,0-1.071-.136,8.975,8.975,0,0,0,.137,1.07A4.453,4.453,0,0,0,10451.319,7217.139Zm-12.646,0a4.458,4.458,0,0,0-.51.034,8.314,8.314,0,0,0,.137-1.07,8.919,8.919,0,0,0-1.07.136,3.808,3.808,0,0,0,0-1.018.682.682,0,1,0,.934-.934s.342.034.51.034.509-.034.509-.034a8.975,8.975,0,0,0-.137,1.071,8.22,8.22,0,0,0,1.07-.137s-.033.341-.033.509.033.509.033.509a8.813,8.813,0,0,0-1.07-.136,8.975,8.975,0,0,0,.137,1.07A4.453,4.453,0,0,0,10438.674,7217.139Zm12.646-9.9a4.458,4.458,0,0,0-.51.034.682.682,0,1,0-.934-.934,3.808,3.808,0,0,0,0-1.018,8.975,8.975,0,0,0,1.07.137,8.236,8.236,0,0,0-.137-1.071s.342.034.51.034.509-.034.509-.034a.683.683,0,1,0,.935.934s-.034.338-.034.509.034.509.034.509a8.3,8.3,0,0,0-1.071-.136,8.975,8.975,0,0,0,.137,1.07A4.453,4.453,0,0,0,10451.319,7207.244Zm-12.646,0a4.458,4.458,0,0,0-.51.034.682.682,0,1,0-.934-.934,3.808,3.808,0,0,0,0-1.018,8.975,8.975,0,0,0,1.07.137,8.236,8.236,0,0,0-.137-1.071s.342.034.51.034.509-.034.509-.034a.682.682,0,1,0,.934.934s-.033.338-.033.509.033.509.033.509a8.273,8.273,0,0,0-1.07-.136,8.975,8.975,0,0,0,.137,1.07A4.453,4.453,0,0,0,10438.674,7207.244Z" transform="translate(-10248.996 -6858.78)" fill="red"/>
  </g>
</svg>
