<?xml version="1.0" encoding="utf-8"?>
<!-- Svg Vector Icons : http://www.onlinewebfonts.com/icon -->
<!DOCTYPE svg PUBLIC "-//W3C//DTD SVG 1.1//EN" "http://www.w3.org/Graphics/SVG/1.1/DTD/svg11.dtd">
<svg version="1.1" xmlns="http://www.w3.org/2000/svg" xmlns:xlink="http://www.w3.org/1999/xlink" x="0px" y="0px" viewBox="0 0 1000 1000" enable-background="new 0 0 1000 1000" xml:space="preserve">
<metadata> Svg Vector Icons : http://www.onlinewebfonts.com/icon </metadata>
<g><path d="M966.4,747.9c-14.9-10.5-178.6-119.3-198.7-131.6c-8.8-5.3-19.4-8-31-8c-14.9,0-31.5,4.3-47.7,12.8c-15.7,8.3-63.5,35.5-86.8,48.8c-20.6-14.5-68.9-51.5-145-127.7C381.5,466.8,344.2,418,329.6,397.3c13.3-23.3,40.5-71,48.7-86.7c15.6-29.6,17.4-59.2,4.7-79.1C371.1,212.7,262.7,48.3,251.5,32.8c-10.5-14.6-29.4-22.5-49.9-22.5c-16.2,0-33.3,4.9-48.2,15.2C152,26.7,8.1,130.9,10,190.2c5.3,166.6,167.2,362.4,302,497.3c134.8,134.9,330.6,296.9,497.9,302.2h1.4c58.5,0,161.4-142,162.4-143.4C1000.9,807.6,991,765.2,966.4,747.9L966.4,747.9z M924.2,810.6c-38.8,53.7-93.7,109.8-115.3,117.9c-114.6-5.4-275.5-106.2-453.5-284.2c-178-178.1-278.7-338.7-284.1-453c7.7-21.7,63.8-77,117.1-115.5c3.9-2.7,8.8-4.3,13.3-4.3c1,0,1.8,0.1,2.5,0.3c17.2,24.9,109.5,164.7,126.2,190.7c0.1,2.8-0.8,9.7-6.1,19.7c-5.7,10.6-23,41.5-47.8,84.9l-19.2,33.7l22.3,31.8c16.6,23.6,56.2,74.9,134.3,153C492.4,664.1,543.5,703.5,567,720l31.8,22.3l33.7-19.2c32.6-18.7,72.1-41,84.9-47.8c10.3-5.5,17.3-5.9,19.2-5.9c0.4,0,0.6,0,0.9,0.1c23.3,14.6,166.1,109.4,191.3,126.6C929.2,798.7,928.8,804,924.2,810.6L924.2,810.6z"/></g>
</svg>